<?xml version="1.0" encoding="utf-8"?>
<!-- Generator: Adobe Illustrator 27.2.0, SVG Export Plug-In . SVG Version: 6.00 Build 0)  -->
<svg version="1.1" id="Слой_1" xmlns="http://www.w3.org/2000/svg" xmlns:xlink="http://www.w3.org/1999/xlink" x="0px" y="0px"
	 viewBox="0 0 193 127" style="enable-background:new 0 0 193 127;" xml:space="preserve">
<style type="text/css">
	.st0{fill:#1D1D1B;}
</style>
<g>
	<text transform="matrix(1 0 0 1 1578.6626 207.1777)" style="font-family:'Gilroy-Bold'; font-size:48.8271px;">Диагональ</text>
	<text transform="matrix(1 0 0 1 1632.9653 257.4999)"><tspan x="0" y="0" style="font-family:'Gilroy-Regular'; font-size:30.2263px;">60</tspan><tspan x="31" y="0" style="font-family:'Gilroy-Regular'; font-size:30.2263px;">&quot;</tspan><tspan x="41.8" y="0" style="font-family:'Gilroy-Regular'; font-size:30.2263px;">–</tspan><tspan x="56.9" y="0" style="font-family:'Gilroy-Regular'; font-size:30.2263px; letter-spacing:-2;"> </tspan><tspan x="60.9" y="0" style="font-family:'Gilroy-Regular'; font-size:30.2263px;">110&quot;</tspan></text>
	<g>
		<g>
			<rect x="1601.5" y="64.9" transform="matrix(0.8654 -0.5011 0.5011 0.8654 194.2489 855.372)" width="175.7" height="2.3"/>
			<g>
				<polygon points="1615.9,112.6 1609,112.6 1612.4,106.6 				"/>
			</g>
			<g>
				<polygon points="1766.2,25.6 1769.7,19.6 1762.7,19.6 				"/>
			</g>
		</g>
		<path d="M1778.3,127.2h-173.2c-5.4,0-9.8-4.4-9.8-9.8V12.1c0-5.4,4.4-9.8,9.8-9.8h173.2c5.4,0,9.8,4.4,9.8,9.8v105.3
			C1788.1,122.8,1783.7,127.2,1778.3,127.2z M1605.2,9.3c-1.5,0-2.8,1.3-2.8,2.8v105.3c0,1.5,1.3,2.8,2.8,2.8h173.2
			c1.5,0,2.8-1.3,2.8-2.8V12.1c0-1.5-1.3-2.8-2.8-2.8H1605.2z"/>
	</g>
	<text transform="matrix(1 0 0 1 43.8604 207.1777)" style="font-family:'Gilroy-Bold'; font-size:48.8271px;">VESA</text>
	<text transform="matrix(1 0 0 1 -21.6045 257.4999)" style="font-family:'Gilroy-Regular'; font-size:30.2263px;">200x200 - 900x600</text>
	<text transform="matrix(1 0 0 1 398.0547 207.831)" style="font-family:'Gilroy-Bold'; font-size:48.8271px;">Нагрузка</text>
	<text transform="matrix(1 0 0 1 454.9912 257.4999)" style="font-family:'Gilroy-Regular'; font-size:30.2263px;">120 кг</text>
	<g>
		<path d="M546.7,127.2H441.3c-3.9,0-7.1-3.2-7.1-7.1V38.8c0-3.9,3.2-7.1,7.1-7.1h32.5l0.1-7l-10.8-0.1c-3.9,0-7.1-3.2-7.1-7.1V6.7
			c0-3.9,3.2-7.1,7.1-7.1H525c3.9,0,7.1,3.2,7.1,7.1v10.7c0,3.9-3.2,7.1-7.1,7.1h-10.7l-0.1,7c0,0.1,0.1,0.1,0.1,0.1h32.5
			c3.9,0,7.1,3.2,7.1,7.1v81.4C553.8,124,550.7,127.2,546.7,127.2z M441.3,38.7l-0.1,81.5l105.5,0.1l0.1-81.5l-32.6-0.1
			c-3.9,0-7.1-3.2-7.1-7.1v-6.9c0-3.9,3.2-7.1,7.1-7.1H525l0.1-10.8l-14.4-0.1h-47.5L463,17.5l10.8,0.1c3.9,0,7.1,3.2,7.1,7.1v6.9
			c0,3.9-3.2,7.1-7.1,7.1H441.3z"/>
		<text transform="matrix(1 0 0 1 473.1567 91.4824)" style="fill:none; font-family:'Gilroy-Bold'; font-size:49.433px;">кг</text>
	</g>
	<g>
		<path class="st0" d="M182.8,127.2H9.6c-5.4,0-9.8-4.4-9.8-9.8V12.1c0-5.4,4.4-9.8,9.8-9.8h173.2c5.4,0,9.8,4.4,9.8,9.8v105.3
			C192.6,122.8,188.2,127.2,182.8,127.2z M9.6,9.3c-1.5,0-2.8,1.3-2.8,2.8v105.3c0,1.5,1.3,2.8,2.8,2.8h173.2c1.5,0,2.8-1.3,2.8-2.8
			V12.1c0-1.5-1.3-2.8-2.8-2.8H9.6z"/>
		<circle cx="51.2" cy="28.2" r="3.5"/>
		<circle cx="51.2" cy="101.7" r="3.5"/>
		<circle cx="141.6" cy="101.7" r="3.5"/>
		<circle cx="141.6" cy="28.2" r="3.5"/>
		<g>
			<path d="M142.8,82.7h-2.3v-2.3h2.3V82.7z M142.8,78.1h-2.3v-2.3h2.3V78.1z M142.8,73.4h-2.3v-2.3h2.3V73.4z M142.8,68.8h-2.3
				v-2.3h2.3V68.8z M142.8,96.7h-2.3v-2.3h2.3V96.7z M142.8,92h-2.3v-2.3h2.3V92z M142.8,87.4h-2.3v-2.3h2.3V87.4z M142.8,82.7h-2.3
				v-2.3h2.3V82.7z M142.8,64.1h-2.3v-2.3h2.3V64.1z M142.8,64.1h-2.3v-2.3h2.3V64.1z M142.8,59.5h-2.3v-2.3h2.3V59.5z M142.8,59.5
				h-2.3v-2.3h2.3V59.5z M142.8,64.1h-2.3v-2.3h2.3V64.1z M142.8,59.5h-2.3v-2.3h2.3V59.5z M142.8,59.5h-2.3v-2.3h2.3V59.5z
				 M142.8,64.1h-2.3v-2.3h2.3V64.1z M142.8,59.5h-2.3v-2.3h2.3V59.5z M142.8,59.5h-2.3v-2.3h2.3V59.5z M142.8,59.5h-2.3v-2.3h2.3
				V59.5z M142.8,59.5h-2.3v-2.3h2.3V59.5z M142.8,54.8h-2.3v-2.3h2.3V54.8z M142.8,50.2h-2.3v-2.3h2.3V50.2z M142.8,50.2h-2.3v-2.3
				h2.3V50.2z M142.8,50.2h-2.3v-2.3h2.3V50.2z M142.8,50.2h-2.3v-2.3h2.3V50.2z M142.8,50.2h-2.3v-2.3h2.3V50.2z M142.8,50.2h-2.3
				v-2.3h2.3V50.2z M142.8,50.2h-2.3v-2.3h2.3V50.2z M142.8,50.2h-2.3v-2.3h2.3V50.2z M142.8,50.2h-2.3v-2.3h2.3V50.2z M142.8,45.5
				h-2.3v-2.3h2.3V45.5z M142.8,40.9h-2.3v-2.3h2.3V40.9z M142.8,40.9h-2.3v-2.3h2.3V40.9z M142.8,36.2h-2.3v-2.3h2.3V36.2z"/>
		</g>
		<g>
			<path d="M52.4,82.7H50v-2.3h2.3V82.7z M52.4,78.1H50v-2.3h2.3V78.1z M52.4,73.4H50v-2.3h2.3V73.4z M52.4,68.8H50v-2.3h2.3V68.8z
				 M52.4,96.7H50v-2.3h2.3V96.7z M52.4,92H50v-2.3h2.3V92z M52.4,87.4H50v-2.3h2.3V87.4z M52.4,82.7H50v-2.3h2.3V82.7z M52.4,64.1
				H50v-2.3h2.3V64.1z M52.4,64.1H50v-2.3h2.3V64.1z M52.4,59.5H50v-2.3h2.3V59.5z M52.4,59.5H50v-2.3h2.3V59.5z M52.4,64.1H50v-2.3
				h2.3V64.1z M52.4,59.5H50v-2.3h2.3V59.5z M52.4,59.5H50v-2.3h2.3V59.5z M52.4,64.1H50v-2.3h2.3V64.1z M52.4,59.5H50v-2.3h2.3
				V59.5z M52.4,59.5H50v-2.3h2.3V59.5z M52.4,59.5H50v-2.3h2.3V59.5z M52.4,59.5H50v-2.3h2.3V59.5z M52.4,54.8H50v-2.3h2.3V54.8z
				 M52.4,50.2H50v-2.3h2.3V50.2z M52.4,50.2H50v-2.3h2.3V50.2z M52.4,50.2H50v-2.3h2.3V50.2z M52.4,50.2H50v-2.3h2.3V50.2z
				 M52.4,50.2H50v-2.3h2.3V50.2z M52.4,50.2H50v-2.3h2.3V50.2z M52.4,50.2H50v-2.3h2.3V50.2z M52.4,50.2H50v-2.3h2.3V50.2z
				 M52.4,50.2H50v-2.3h2.3V50.2z M52.4,45.5H50v-2.3h2.3V45.5z M52.4,40.9H50v-2.3h2.3V40.9z M52.4,40.9H50v-2.3h2.3V40.9z
				 M52.4,36.2H50v-2.3h2.3V36.2z"/>
		</g>
		<g>
			<path d="M67.7,29.3V27H70v2.3H67.7z M72.4,29.3l0-2.3l2.3,0v2.3H72.4z M77,29.3V27h2.3v2.3H77z M81.7,29.3V27H84v2.3H81.7z
				 M58.4,29.3V27h2.3v2.3H58.4z M63.1,29.3V27h2.3v2.3L63.1,29.3z M67.7,29.3V27H70v2.3H67.7z M72.4,29.3l0-2.3l2.3,0v2.3H72.4z
				 M86.3,29.3V27h2.3v2.3L86.3,29.3z M86.3,29.3V27h2.3v2.3L86.3,29.3z M91,29.3V27h2.3v2.3H91z M91,29.3V27h2.3v2.3H91z
				 M86.3,29.3V27h2.3v2.3L86.3,29.3z M91,29.3V27h2.3v2.3H91z M91,29.3V27h2.3v2.3H91z M86.3,29.3V27h2.3v2.3L86.3,29.3z M91,29.3
				V27h2.3v2.3H91z M91,29.3V27h2.3v2.3H91z M91,29.3V27h2.3v2.3H91z M91,29.3V27h2.3v2.3H91z M91,29.3V27h2.3v2.3H91z M95.6,29.3
				V27l2.3,0v2.3H95.6z M100.3,29.3V27h2.3v2.3H100.3z M100.3,29.3V27h2.3v2.3H100.3z M104.9,29.3V27h2.3v2.3H104.9z M104.9,29.3V27
				h2.3v2.3H104.9z M100.3,29.3V27h2.3v2.3H100.3z M104.9,29.3V27h2.3v2.3H104.9z M104.9,29.3V27h2.3v2.3H104.9z M100.3,29.3V27h2.3
				v2.3H100.3z M104.9,29.3V27h2.3v2.3H104.9z M104.9,29.3V27h2.3v2.3H104.9z M104.9,29.3V27h2.3v2.3H104.9z M104.9,29.3V27h2.3v2.3
				H104.9z M104.9,29.3V27h2.3v2.3H104.9z M104.9,29.3V27h2.3v2.3H104.9z M109.6,29.3V27h2.3v2.3L109.6,29.3z M109.6,29.3V27h2.3
				v2.3L109.6,29.3z M104.9,29.3V27h2.3v2.3H104.9z M109.6,29.3V27h2.3v2.3L109.6,29.3z M109.6,29.3l0-2.3h2.3v2.3L109.6,29.3z
				 M104.9,29.3V27h2.3v2.3H104.9z M109.6,29.3V27h2.3v2.3L109.6,29.3z M109.6,29.3l0-2.3h2.3v2.3L109.6,29.3z M109.6,29.3V27h2.3
				v2.3L109.6,29.3z M109.6,29.3l0-2.3h2.3v2.3L109.6,29.3z M109.6,29.3V27h2.3v2.3L109.6,29.3z M109.6,29.3V27h2.3v2.3L109.6,29.3z
				 M109.6,29.3V27h2.3v2.3L109.6,29.3z M109.6,29.3l0-2.3h2.3v2.3L109.6,29.3z M109.6,29.3V27h2.3v2.3L109.6,29.3z M109.6,29.3
				l0-2.3h2.3v2.3L109.6,29.3z M109.6,29.3V27h2.3v2.3L109.6,29.3z M109.6,29.3l0-2.3h2.3v2.3L109.6,29.3z M109.6,29.3V27h2.3v2.3
				L109.6,29.3z M109.6,29.3V27h2.3v2.3L109.6,29.3z M114.2,29.3V27h2.3v2.3H114.2z M114.2,29.3V27h2.3v2.3H114.2z M109.6,29.3V27
				h2.3v2.3L109.6,29.3z M114.2,29.3V27h2.3v2.3H114.2z M114.2,29.3V27h2.3v2.3H114.2z M109.6,29.3V27h2.3v2.3L109.6,29.3z
				 M114.2,29.3V27h2.3v2.3H114.2z M114.2,29.3V27h2.3v2.3H114.2z M114.2,29.3V27h2.3v2.3H114.2z M114.2,29.3V27h2.3v2.3H114.2z
				 M118.9,29.3V27h2.3v2.3H118.9z M118.9,29.3V27h2.3v2.3H118.9z M118.9,29.3V27h2.3v2.3H118.9z M118.9,29.3V27h2.3v2.3H118.9z
				 M118.9,29.3V27h2.3v2.3H118.9z M118.9,29.3V27h2.3v2.3H118.9z M118.9,29.3V27h2.3v2.3H118.9z M118.9,29.3V27h2.3v2.3H118.9z
				 M118.9,29.3V27h2.3v2.3H118.9z M118.9,29.3V27h2.3v2.3H118.9z M118.9,29.3V27h2.3v2.3H118.9z M123.5,29.3V27h2.3v2.3H123.5z
				 M123.5,29.3V27h2.3v2.3H123.5z M118.9,29.3V27h2.3v2.3H118.9z M123.5,29.3V27h2.3v2.3H123.5z M123.5,29.3V27h2.3v2.3H123.5z
				 M118.9,29.3V27h2.3v2.3H118.9z M123.5,29.3V27h2.3v2.3H123.5z M123.5,29.3V27h2.3v2.3H123.5z M123.5,29.3V27h2.3v2.3H123.5z
				 M123.5,29.3V27h2.3v2.3H123.5z M123.5,29.3V27h2.3v2.3H123.5z M123.5,29.3V27h2.3v2.3H123.5z M123.5,29.3V27h2.3v2.3H123.5z
				 M123.5,29.3V27h2.3v2.3H123.5z M123.5,29.3V27h2.3v2.3H123.5z M123.5,29.3V27h2.3v2.3H123.5z M123.5,29.3V27h2.3v2.3H123.5z
				 M123.5,29.3V27h2.3v2.3H123.5z M123.5,29.3V27h2.3v2.3H123.5z M123.5,29.3V27h2.3v2.3H123.5z M128.2,29.3V27h2.3v2.3L128.2,29.3
				z M128.2,29.3V27h2.3v2.3L128.2,29.3z M123.5,29.3V27h2.3v2.3H123.5z M128.2,29.3V27h2.3v2.3L128.2,29.3z M128.2,29.3V27h2.3v2.3
				L128.2,29.3z M123.5,29.3V27h2.3v2.3H123.5z M128.2,29.3V27h2.3v2.3L128.2,29.3z M128.2,29.3V27h2.3v2.3L128.2,29.3z M128.2,29.3
				V27h2.3v2.3L128.2,29.3z M128.2,29.3V27h2.3v2.3L128.2,29.3z M132.8,29.3V27l2.3,0v2.3H132.8z"/>
		</g>
		<g>
			<path d="M67.7,102.9v-2.3H70v2.3H67.7z M72.4,102.9l0-2.3l2.3,0v2.3H72.4z M77,102.9v-2.3h2.3v2.3H77z M81.7,102.9v-2.3H84v2.3
				H81.7z M58.4,102.9v-2.3h2.3v2.3H58.4z M63.1,102.9v-2.3h2.3v2.3H63.1z M67.7,102.9v-2.3H70v2.3H67.7z M72.4,102.9l0-2.3l2.3,0
				v2.3H72.4z M86.3,102.9v-2.3h2.3v2.3L86.3,102.9z M86.3,102.9v-2.3h2.3v2.3L86.3,102.9z M91,102.9v-2.3h2.3v2.3H91z M91,102.9
				v-2.3h2.3v2.3H91z M86.3,102.9v-2.3h2.3v2.3L86.3,102.9z M91,102.9v-2.3h2.3v2.3H91z M91,102.9v-2.3h2.3v2.3H91z M86.3,102.9
				v-2.3h2.3v2.3L86.3,102.9z M91,102.9v-2.3h2.3v2.3H91z M91,102.9v-2.3h2.3v2.3H91z M91,102.9v-2.3h2.3v2.3H91z M91,102.9v-2.3
				h2.3v2.3H91z M91,102.9v-2.3h2.3v2.3H91z M95.6,102.9v-2.3h2.3v2.3H95.6z M100.3,102.9v-2.3h2.3v2.3H100.3z M100.3,102.9v-2.3
				h2.3v2.3H100.3z M104.9,102.9v-2.3h2.3v2.3H104.9z M104.9,102.9v-2.3h2.3v2.3H104.9z M100.3,102.9v-2.3h2.3v2.3H100.3z
				 M104.9,102.9v-2.3h2.3v2.3H104.9z M104.9,102.9v-2.3h2.3v2.3H104.9z M100.3,102.9v-2.3h2.3v2.3H100.3z M104.9,102.9v-2.3h2.3
				v2.3H104.9z M104.9,102.9v-2.3h2.3v2.3H104.9z M104.9,102.9v-2.3h2.3v2.3H104.9z M104.9,102.9v-2.3h2.3v2.3H104.9z M104.9,102.9
				v-2.3h2.3v2.3H104.9z M104.9,102.9v-2.3h2.3v2.3H104.9z M109.6,102.9v-2.3h2.3v2.3H109.6z M109.6,102.9v-2.3h2.3v2.3H109.6z
				 M104.9,102.9v-2.3h2.3v2.3H104.9z M109.6,102.9v-2.3h2.3v2.3H109.6z M109.6,102.9l0-2.3h2.3v2.3H109.6z M104.9,102.9v-2.3h2.3
				v2.3H104.9z M109.6,102.9v-2.3h2.3v2.3H109.6z M109.6,102.9l0-2.3h2.3v2.3H109.6z M109.6,102.9v-2.3h2.3v2.3H109.6z M109.6,102.9
				l0-2.3h2.3v2.3H109.6z M109.6,102.9v-2.3h2.3v2.3H109.6z M109.6,102.9v-2.3h2.3v2.3H109.6z M109.6,102.9v-2.3h2.3v2.3H109.6z
				 M109.6,102.9l0-2.3h2.3v2.3H109.6z M109.6,102.9v-2.3h2.3v2.3H109.6z M109.6,102.9l0-2.3h2.3v2.3H109.6z M109.6,102.9v-2.3h2.3
				v2.3H109.6z M109.6,102.9l0-2.3h2.3v2.3H109.6z M109.6,102.9v-2.3h2.3v2.3H109.6z M109.6,102.9v-2.3h2.3v2.3H109.6z M114.2,102.9
				v-2.3h2.3v2.3H114.2z M114.2,102.9v-2.3h2.3v2.3H114.2z M109.6,102.9v-2.3h2.3v2.3H109.6z M114.2,102.9v-2.3h2.3v2.3H114.2z
				 M114.2,102.9v-2.3h2.3v2.3H114.2z M109.6,102.9v-2.3h2.3v2.3H109.6z M114.2,102.9v-2.3h2.3v2.3H114.2z M114.2,102.9v-2.3h2.3
				v2.3H114.2z M114.2,102.9v-2.3h2.3v2.3H114.2z M114.2,102.9v-2.3h2.3v2.3H114.2z M118.9,102.9v-2.3h2.3v2.3H118.9z M118.9,102.9
				v-2.3h2.3v2.3H118.9z M118.9,102.9v-2.3h2.3v2.3H118.9z M118.9,102.9v-2.3h2.3v2.3H118.9z M118.9,102.9v-2.3h2.3v2.3H118.9z
				 M118.9,102.9v-2.3h2.3v2.3H118.9z M118.9,102.9v-2.3h2.3v2.3H118.9z M118.9,102.9v-2.3h2.3v2.3H118.9z M118.9,102.9v-2.3h2.3
				v2.3H118.9z M118.9,102.9v-2.3h2.3v2.3H118.9z M118.9,102.9v-2.3h2.3v2.3H118.9z M123.5,102.9v-2.3h2.3v2.3H123.5z M123.5,102.9
				v-2.3h2.3v2.3H123.5z M118.9,102.9v-2.3h2.3v2.3H118.9z M123.5,102.9v-2.3h2.3v2.3H123.5z M123.5,102.9v-2.3h2.3v2.3H123.5z
				 M118.9,102.9v-2.3h2.3v2.3H118.9z M123.5,102.9v-2.3h2.3v2.3H123.5z M123.5,102.9v-2.3h2.3v2.3H123.5z M123.5,102.9v-2.3h2.3
				v2.3H123.5z M123.5,102.9v-2.3h2.3v2.3H123.5z M123.5,102.9v-2.3h2.3v2.3H123.5z M123.5,102.9v-2.3h2.3v2.3H123.5z M123.5,102.9
				v-2.3h2.3v2.3H123.5z M123.5,102.9v-2.3h2.3v2.3H123.5z M123.5,102.9v-2.3h2.3v2.3H123.5z M123.5,102.9v-2.3h2.3v2.3H123.5z
				 M123.5,102.9v-2.3h2.3v2.3H123.5z M123.5,102.9v-2.3h2.3v2.3H123.5z M123.5,102.9v-2.3h2.3v2.3H123.5z M123.5,102.9v-2.3h2.3
				v2.3H123.5z M128.2,102.9v-2.3h2.3v2.3H128.2z M128.2,102.9v-2.3h2.3v2.3H128.2z M123.5,102.9v-2.3h2.3v2.3H123.5z M128.2,102.9
				v-2.3h2.3v2.3H128.2z M128.2,102.9v-2.3h2.3v2.3H128.2z M123.5,102.9v-2.3h2.3v2.3H123.5z M128.2,102.9v-2.3h2.3v2.3H128.2z
				 M128.2,102.9v-2.3h2.3v2.3H128.2z M128.2,102.9v-2.3h2.3v2.3H128.2z M128.2,102.9v-2.3h2.3v2.3H128.2z M132.8,102.9v-2.3h2.3
				v2.3H132.8z"/>
		</g>
	</g>
	<g>
		<text transform="matrix(1 0 0 1 1215.3081 207.831)" style="font-family:'Gilroy-Bold'; font-size:48.8271px;">Наклон</text>
		<text transform="matrix(1 0 0 1 1231.8638 257.4999)" style="font-family:'Gilroy-Regular'; font-size:30.2263px;">+5° ~ -10°</text>
		<g>
			<g>
				<path d="M1310.4,64.8c0,0,0,0.1,0,0.1c0,16.1-6.3,31.3-16.7,40.6l-1.5-1.7c9.9-8.9,15.9-23.4,15.9-38.8c0,0,0-0.1,0-0.1
					c0-15.5-5.8-29.5-15.9-38.6l1.6-1.7C1304.3,33.9,1310.4,48.6,1310.4,64.8z"/>
				<g>
					<polygon points="1295.9,106.6 1289,107.7 1291.5,101.2 					"/>
				</g>
				<g>
					<polygon points="1295.8,23.3 1289,22.1 1291.4,28.6 					"/>
				</g>
			</g>
			<g>
				<path d="M1360.5,127.2H1206c-5.4,0-9.8-4.4-9.8-9.8c0-0.2,0-0.5,0.1-0.7l21-105c0.2-5.2,4.5-9.4,9.8-9.4h154.5
					c5.4,0,9.8,4.4,9.8,9.8c0,0.2,0,0.5-0.1,0.7l-21,105C1370.1,123.1,1365.8,127.2,1360.5,127.2z M1203.2,117.7
					c0.1,1.4,1.3,2.5,2.8,2.5h154.5c1.5,0,2.8-1.3,2.8-2.8c0-0.2,0-0.5,0.1-0.7l21-104.9c-0.1-1.4-1.3-2.5-2.8-2.5h-154.5
					c-1.5,0-2.8,1.3-2.8,2.8c0,0.2,0,0.5-0.1,0.7L1203.2,117.7z"/>
			</g>
			<path d="M1381.6,124.9h-0.6v-2.3h0.6c0.5,0,1-0.1,1.4-0.2l0.6,2.2C1383,124.8,1382.3,124.9,1381.6,124.9z M1378.7,124.9h-2.3
				v-2.3h2.3V124.9z M1374.1,124.9h-2.3v-2.3h2.3V124.9z M1369.4,124.9h-2.3v-2.3h2.3V124.9z M1364.8,124.9h-2.3v-2.3h2.3V124.9z
				 M1360.1,124.9h-2.3v-2.3h2.3V124.9z M1355.5,124.9h-2.3v-2.3h2.3V124.9z M1350.8,124.9h-2.3v-2.3h2.3V124.9z M1346.2,124.9h-2.3
				v-2.3h2.3V124.9z M1341.5,124.9h-2.3v-2.3h2.3V124.9z M1336.9,124.9h-2.3v-2.3h2.3V124.9z M1332.2,124.9h-2.3v-2.3h2.3V124.9z
				 M1327.6,124.9h-2.3v-2.3h2.3V124.9z M1322.9,124.9h-2.3v-2.3h2.3V124.9z M1318.3,124.9h-2.3v-2.3h2.3V124.9z M1313.6,124.9h-2.3
				v-2.3h2.3V124.9z M1309,124.9h-2.3v-2.3h2.3V124.9z M1304.3,124.9h-2.3v-2.3h2.3V124.9z M1299.7,124.9h-2.3v-2.3h2.3V124.9z
				 M1295,124.9h-2.3v-2.3h2.3V124.9z M1290.4,124.9h-2.3v-2.3h2.3V124.9z M1285.7,124.9h-2.3v-2.3h2.3V124.9z M1281.1,124.9h-2.3
				v-2.3h2.3V124.9z M1276.4,124.9h-2.3v-2.3h2.3V124.9z M1271.8,124.9h-2.3v-2.3h2.3V124.9z M1267.1,124.9h-2.3v-2.3h2.3V124.9z
				 M1262.5,124.9h-2.3v-2.3h2.3V124.9z M1257.8,124.9h-2.3v-2.3h2.3V124.9z M1253.2,124.9h-2.3v-2.3h2.3V124.9z M1248.5,124.9h-2.3
				v-2.3h2.3V124.9z M1243.9,124.9h-2.3v-2.3h2.3V124.9z M1239.2,124.9h-2.3v-2.3h2.3V124.9z M1234.6,124.9h-2.3v-2.3h2.3V124.9z
				 M1229.9,124.9h-2.3v-2.3h2.3V124.9z M1225,124.6c-0.9-0.3-1.7-0.7-2.5-1.2l1.4-1.9c0.5,0.4,1.1,0.7,1.7,0.8L1225,124.6z
				 M1386.1,123.4l-1.4-1.9c0.5-0.4,0.9-0.9,1.3-1.4l2,1.2C1387.5,122.1,1386.8,122.8,1386.1,123.4z M1220.7,121.4
				c-0.5-0.8-0.8-1.7-1-2.6l2.3-0.4c0.1,0.6,0.3,1.2,0.7,1.8L1220.7,121.4z M1388.9,118.8l-2.3-0.4c0.1-0.3,0.1-0.6,0.1-0.9
				l-0.2-0.9l2.3-0.5l0.2,1.2C1389.1,117.9,1389,118.4,1388.9,118.8z M1219.4,116.5l-0.5-2.3l2.3-0.5l0.5,2.3L1219.4,116.5z
				 M1386.1,114.2l-0.5-2.3l2.3-0.5l0.5,2.3L1386.1,114.2z M1218.5,112l-0.5-2.3l2.3-0.5l0.5,2.3L1218.5,112z M1385.2,109.7
				l-0.5-2.3l2.3-0.5l0.5,2.3L1385.2,109.7z M1217.6,107.4l-0.5-2.3l2.3-0.5l0.5,2.3L1217.6,107.4z M1384.2,105.1l-0.5-2.3l2.3-0.5
				l0.5,2.3L1384.2,105.1z M1216.6,102.9l-0.5-2.3l2.3-0.5l0.5,2.3L1216.6,102.9z M1383.3,100.6l-0.5-2.3l2.3-0.5l0.5,2.3
				L1383.3,100.6z M1215.7,98.3l-0.5-2.3l2.3-0.5l0.5,2.3L1215.7,98.3z M1382.4,96l-0.5-2.3l2.3-0.5l0.5,2.3L1382.4,96z
				 M1214.8,93.7l-0.5-2.3l2.3-0.5l0.5,2.3L1214.8,93.7z M1381.5,91.4l-0.5-2.3l2.3-0.5l0.5,2.3L1381.5,91.4z M1213.9,89.2l-0.5-2.3
				l2.3-0.5l0.5,2.3L1213.9,89.2z M1380.6,86.9l-0.5-2.3l2.3-0.5l0.5,2.3L1380.6,86.9z M1213,84.6l-0.5-2.3l2.3-0.5l0.5,2.3
				L1213,84.6z M1379.7,82.3l-0.5-2.3l2.3-0.5l0.5,2.3L1379.7,82.3z M1212.1,80.1l-0.5-2.3l2.3-0.5l0.5,2.3L1212.1,80.1z
				 M1378.8,77.8l-0.5-2.3l2.3-0.5l0.5,2.3L1378.8,77.8z M1211.2,75.5l-0.5-2.3l2.3-0.5l0.5,2.3L1211.2,75.5z M1377.9,73.2l-0.5-2.3
				l2.3-0.5l0.5,2.3L1377.9,73.2z M1210.3,70.9l-0.5-2.3l2.3-0.5l0.5,2.3L1210.3,70.9z M1376.9,68.6l-0.5-2.3l2.3-0.5l0.5,2.3
				L1376.9,68.6z M1209.4,66.4l-0.5-2.3l2.3-0.5l0.5,2.3L1209.4,66.4z M1208.4,61.8l-0.5-2.3l2.3-0.5l0.5,2.3L1208.4,61.8z
				 M1207.5,57.3l-0.5-2.3l2.3-0.5l0.5,2.3L1207.5,57.3z M1206.6,52.7l-0.5-2.3l2.3-0.5l0.5,2.3L1206.6,52.7z M1205.7,48.1l-0.5-2.3
				l2.3-0.5l0.5,2.3L1205.7,48.1z M1204.8,43.6l-0.5-2.3l2.3-0.5l0.5,2.3L1204.8,43.6z M1203.9,39l-0.5-2.3l2.3-0.5l0.5,2.3
				L1203.9,39z M1203,34.5l-0.5-2.3l2.3-0.5l0.5,2.3L1203,34.5z M1202.1,29.9l-0.5-2.3l2.3-0.5l0.5,2.3L1202.1,29.9z M1201.2,25.3
				l-0.5-2.3l2.3-0.5l0.5,2.3L1201.2,25.3z M1200.2,20.8l-0.5-2.3l2.3-0.5l0.5,2.3L1200.2,20.8z M1199.3,16.2l-0.5-2.3l2.3-0.5
				l0.5,2.3L1199.3,16.2z M1200.9,11.5l-2.3-0.3c0.1-0.9,0.4-1.8,0.8-2.6l2.1,1.1C1201.2,10.3,1201,10.9,1200.9,11.5z M1202.6,8.3
				l-1.5-1.8c0.7-0.6,1.5-1.1,2.4-1.4l0.8,2.2C1203.6,7.5,1203.1,7.9,1202.6,8.3z M1227.1,7h-2.3V4.7h2.3V7z M1222.4,7h-2.3V4.7h2.3
				V7z M1217.8,7h-2.3V4.7h2.3V7z M1213.1,7h-2.3V4.7h2.3V7z M1208.5,7h-2.3V4.7h2.3V7z"/>
		</g>
	</g>
	<g>
		<text transform="matrix(1 0 0 1 733.4907 207.831)" style="font-family:'Gilroy-Bold'; font-size:48.8271px;">Вылет от стены</text>
		<text transform="matrix(1 0 0 1 855.8882 257.4999)" style="font-family:'Gilroy-Regular'; font-size:30.2263px;">8.5 см</text>
		<g>
			<g>
				<path d="M901.4,126.4c-1.9,0-3.4-1.5-3.4-3.4V6.6c0-1.9,1.5-3.4,3.4-3.4c1.9,0,3.4,1.5,3.4,3.4V123
					C904.9,124.9,903.3,126.4,901.4,126.4z"/>
				<path d="M901.4,127.2c-2.3,0-4.3-1.9-4.3-4.3V6.6c0-2.3,1.9-4.3,4.3-4.3s4.3,1.9,4.3,4.3V123
					C905.7,125.3,903.8,127.2,901.4,127.2z M901.4,3.9c-1.4,0-2.6,1.2-2.6,2.6V123c0,1.5,1.2,2.6,2.6,2.6s2.6-1.2,2.6-2.6V6.6
					C904.1,5.1,902.9,3.9,901.4,3.9z"/>
			</g>
			<g>
				<path d="M895,78.2c-1.7,0-3-1.3-3-3V54.3c0-1.7,1.3-3,3-3s3,1.3,3,3v20.9C898,76.9,896.6,78.2,895,78.2z"/>
				<path d="M895,79c-2.1,0-3.8-1.7-3.8-3.8V54.3c0-2.1,1.7-3.8,3.8-3.8s3.8,1.7,3.8,3.8v20.9C898.8,77.3,897.1,79,895,79z
					 M895,52.2c-1.2,0-2.2,1-2.2,2.2v20.9c0,1.2,1,2.2,2.2,2.2c1.2,0,2.2-1,2.2-2.2V54.3C897.2,53.1,896.2,52.2,895,52.2z"/>
			</g>
			<g>
				<path d="M886.9,86.7c-1.9,0-3.4-1.5-3.4-3.4V44.6c0-1.9,1.5-3.4,3.4-3.4c1.9,0,3.4,1.5,3.4,3.4v38.7
					C890.4,85.2,888.8,86.7,886.9,86.7z"/>
				<path d="M886.9,87.5c-2.3,0-4.3-1.9-4.3-4.3V44.6c0-2.3,1.9-4.3,4.3-4.3c2.3,0,4.3,1.9,4.3,4.3v38.7
					C891.2,85.6,889.3,87.5,886.9,87.5z M886.9,41.9c-1.5,0-2.6,1.2-2.6,2.6v38.7c0,1.5,1.2,2.6,2.6,2.6c1.4,0,2.6-1.2,2.6-2.6V44.6
					C889.6,43.1,888.4,41.9,886.9,41.9z"/>
			</g>
			<g>
				<line x1="883.6" y1="113" x2="883.6" y2="15"/>
				<path d="M883.6,113.9c-0.5,0-1-0.4-1-1V15c0-0.5,0.4-1,1-1c0.5,0,1,0.4,1,1v98C884.5,113.5,884.1,113.9,883.6,113.9z"/>
			</g>
		</g>
	</g>
</g>
</svg>
