<?xml version="1.0" encoding="utf-8"?>
<!-- Generator: Adobe Illustrator 27.2.0, SVG Export Plug-In . SVG Version: 6.00 Build 0)  -->
<svg version="1.1" id="Слой_1" xmlns="http://www.w3.org/2000/svg" xmlns:xlink="http://www.w3.org/1999/xlink" x="0px" y="0px"
	 viewBox="0 0 119 128.5" style="enable-background:new 0 0 119 128.5;" xml:space="preserve">
<style type="text/css">
	.st0{fill:none;}
	.st1{font-family:'Gilroy-Bold';}
	.st2{font-size:49.433px;}
	.st3{fill:#1D1D1B;}
</style>
<g>
	<text transform="matrix(1 0 0 1 1144.1626 207.1777)" class="st1" style="font-size:48.8271px;">Диагональ</text>
	<text transform="matrix(1 0 0 1 1198.4653 257.4999)"><tspan x="0" y="0" style="font-family:'Gilroy-Regular'; font-size:30.2263px;">60</tspan><tspan x="31" y="0" style="font-family:'Gilroy-Regular'; font-size:30.2263px;">&quot;</tspan><tspan x="41.8" y="0" style="font-family:'Gilroy-Regular'; font-size:30.2263px;">–</tspan><tspan x="56.9" y="0" style="font-family:'Gilroy-Regular'; font-size:30.2263px; letter-spacing:-2;"> </tspan><tspan x="60.9" y="0" style="font-family:'Gilroy-Regular'; font-size:30.2263px;">110&quot;</tspan></text>
	<g>
		<g>
			<rect x="1167" y="64.9" transform="matrix(0.8654 -0.5011 0.5011 0.8654 135.7669 637.655)" width="175.7" height="2.3"/>
			<g>
				<polygon points="1181.4,112.6 1174.5,112.6 1177.9,106.6 				"/>
			</g>
			<g>
				<polygon points="1331.7,25.6 1335.2,19.6 1328.2,19.6 				"/>
			</g>
		</g>
		<path d="M1343.8,127.2h-173.2c-5.4,0-9.8-4.4-9.8-9.8V12.1c0-5.4,4.4-9.8,9.8-9.8h173.2c5.4,0,9.8,4.4,9.8,9.8v105.3
			C1353.6,122.8,1349.2,127.2,1343.8,127.2z M1170.7,9.3c-1.5,0-2.8,1.3-2.8,2.8v105.3c0,1.5,1.3,2.8,2.8,2.8h173.2
			c1.5,0,2.8-1.3,2.8-2.8V12.1c0-1.5-1.3-2.8-2.8-2.8H1170.7z"/>
	</g>
	<text transform="matrix(1 0 0 1 -390.6396 207.1777)" class="st1" style="font-size:48.8271px;">VESA</text>
	<text transform="matrix(1 0 0 1 -456.1045 257.4999)" style="font-family:'Gilroy-Regular'; font-size:30.2263px;">200x200 - 900x600</text>
	<text transform="matrix(1 0 0 1 -36.4453 207.831)" class="st1" style="font-size:48.8271px;">Нагрузка</text>
	<text transform="matrix(1 0 0 1 20.4912 257.4999)" style="font-family:'Gilroy-Regular'; font-size:30.2263px;">120 кг</text>
	<g>
		<path d="M112.2,127.2H6.8c-3.9,0-7.1-3.2-7.1-7.1V38.8c0-3.9,3.2-7.1,7.1-7.1h32.5l0.1-7l-10.8-0.1c-3.9,0-7.1-3.2-7.1-7.1V6.7
			c0-3.9,3.2-7.1,7.1-7.1h61.9c3.9,0,7.1,3.2,7.1,7.1v10.7c0,3.9-3.2,7.1-7.1,7.1H79.7l-0.1,7c0,0.1,0.1,0.1,0.1,0.1h32.5
			c3.9,0,7.1,3.2,7.1,7.1v81.4C119.3,124,116.2,127.2,112.2,127.2z M6.8,38.7l-0.1,81.5l105.5,0.1l0.1-81.5l-32.6-0.1
			c-3.9,0-7.1-3.2-7.1-7.1v-6.9c0-3.9,3.2-7.1,7.1-7.1h10.7l0.1-10.8L76.1,6.6H28.6l-0.1,10.8l10.8,0.1c3.9,0,7.1,3.2,7.1,7.1v6.9
			c0,3.9-3.2,7.1-7.1,7.1H6.8z"/>
		<text transform="matrix(1 0 0 1 38.6567 91.4824)" class="st0 st1 st2">кг</text>
	</g>
	<g>
		<path class="st3" d="M-251.7,127.2h-173.2c-5.4,0-9.8-4.4-9.8-9.8V12.1c0-5.4,4.4-9.8,9.8-9.8h173.2c5.4,0,9.8,4.4,9.8,9.8v105.3
			C-241.9,122.8-246.3,127.2-251.7,127.2z M-424.9,9.3c-1.5,0-2.8,1.3-2.8,2.8v105.3c0,1.5,1.3,2.8,2.8,2.8h173.2
			c1.5,0,2.8-1.3,2.8-2.8V12.1c0-1.5-1.3-2.8-2.8-2.8H-424.9z"/>
		<circle cx="-383.3" cy="28.2" r="3.5"/>
		<circle cx="-383.3" cy="101.7" r="3.5"/>
		<circle cx="-292.9" cy="101.7" r="3.5"/>
		<circle cx="-292.9" cy="28.2" r="3.5"/>
		<g>
			<path d="M-291.7,82.7h-2.3v-2.3h2.3V82.7z M-291.7,78.1h-2.3v-2.3h2.3V78.1z M-291.7,73.4h-2.3v-2.3h2.3V73.4z M-291.7,68.8h-2.3
				v-2.3h2.3V68.8z M-291.7,96.7h-2.3v-2.3h2.3V96.7z M-291.7,92h-2.3v-2.3h2.3V92z M-291.7,87.4h-2.3v-2.3h2.3V87.4z M-291.7,82.7
				h-2.3v-2.3h2.3V82.7z M-291.7,64.1h-2.3v-2.3h2.3V64.1z M-291.7,64.1h-2.3v-2.3h2.3V64.1z M-291.7,59.5h-2.3v-2.3h2.3V59.5z
				 M-291.7,59.5h-2.3v-2.3h2.3V59.5z M-291.7,64.1h-2.3v-2.3h2.3V64.1z M-291.7,59.5h-2.3v-2.3h2.3V59.5z M-291.7,59.5h-2.3v-2.3
				h2.3V59.5z M-291.7,64.1h-2.3v-2.3h2.3V64.1z M-291.7,59.5h-2.3v-2.3h2.3V59.5z M-291.7,59.5h-2.3v-2.3h2.3V59.5z M-291.7,59.5
				h-2.3v-2.3h2.3V59.5z M-291.7,59.5h-2.3v-2.3h2.3V59.5z M-291.7,54.8h-2.3v-2.3h2.3V54.8z M-291.7,50.2h-2.3v-2.3h2.3V50.2z
				 M-291.7,50.2h-2.3v-2.3h2.3V50.2z M-291.7,50.2h-2.3v-2.3h2.3V50.2z M-291.7,50.2h-2.3v-2.3h2.3V50.2z M-291.7,50.2h-2.3v-2.3
				h2.3V50.2z M-291.7,50.2h-2.3v-2.3h2.3V50.2z M-291.7,50.2h-2.3v-2.3h2.3V50.2z M-291.7,50.2h-2.3v-2.3h2.3V50.2z M-291.7,50.2
				h-2.3v-2.3h2.3V50.2z M-291.7,45.5h-2.3v-2.3h2.3V45.5z M-291.7,40.9h-2.3v-2.3h2.3V40.9z M-291.7,40.9h-2.3v-2.3h2.3V40.9z
				 M-291.7,36.2h-2.3v-2.3h2.3V36.2z"/>
		</g>
		<g>
			<path d="M-382.1,82.7h-2.3v-2.3h2.3V82.7z M-382.1,78.1h-2.3v-2.3h2.3V78.1z M-382.1,73.4h-2.3v-2.3h2.3V73.4z M-382.1,68.8h-2.3
				v-2.3h2.3V68.8z M-382.1,96.7h-2.3v-2.3h2.3V96.7z M-382.1,92h-2.3v-2.3h2.3V92z M-382.1,87.4h-2.3v-2.3h2.3V87.4z M-382.1,82.7
				h-2.3v-2.3h2.3V82.7z M-382.1,64.1h-2.3v-2.3h2.3V64.1z M-382.1,64.1h-2.3v-2.3h2.3V64.1z M-382.1,59.5h-2.3v-2.3h2.3V59.5z
				 M-382.1,59.5h-2.3v-2.3h2.3V59.5z M-382.1,64.1h-2.3v-2.3h2.3V64.1z M-382.1,59.5h-2.3v-2.3h2.3V59.5z M-382.1,59.5h-2.3v-2.3
				h2.3V59.5z M-382.1,64.1h-2.3v-2.3h2.3V64.1z M-382.1,59.5h-2.3v-2.3h2.3V59.5z M-382.1,59.5h-2.3v-2.3h2.3V59.5z M-382.1,59.5
				h-2.3v-2.3h2.3V59.5z M-382.1,59.5h-2.3v-2.3h2.3V59.5z M-382.1,54.8h-2.3v-2.3h2.3V54.8z M-382.1,50.2h-2.3v-2.3h2.3V50.2z
				 M-382.1,50.2h-2.3v-2.3h2.3V50.2z M-382.1,50.2h-2.3v-2.3h2.3V50.2z M-382.1,50.2h-2.3v-2.3h2.3V50.2z M-382.1,50.2h-2.3v-2.3
				h2.3V50.2z M-382.1,50.2h-2.3v-2.3h2.3V50.2z M-382.1,50.2h-2.3v-2.3h2.3V50.2z M-382.1,50.2h-2.3v-2.3h2.3V50.2z M-382.1,50.2
				h-2.3v-2.3h2.3V50.2z M-382.1,45.5h-2.3v-2.3h2.3V45.5z M-382.1,40.9h-2.3v-2.3h2.3V40.9z M-382.1,40.9h-2.3v-2.3h2.3V40.9z
				 M-382.1,36.2h-2.3v-2.3h2.3V36.2z"/>
		</g>
		<g>
			<path d="M-366.8,29.3V27h2.3v2.3H-366.8z M-362.1,29.3V27l2.3,0v2.3H-362.1z M-357.5,29.3V27h2.3v2.3H-357.5z M-352.8,29.3V27
				h2.3v2.3H-352.8z M-376.1,29.3V27h2.3v2.3H-376.1z M-371.4,29.3V27h2.3v2.3L-371.4,29.3z M-366.8,29.3V27h2.3v2.3H-366.8z
				 M-362.1,29.3V27l2.3,0v2.3H-362.1z M-348.2,29.3V27h2.3v2.3L-348.2,29.3z M-348.2,29.3V27h2.3v2.3L-348.2,29.3z M-343.5,29.3V27
				h2.3v2.3H-343.5z M-343.5,29.3V27h2.3v2.3H-343.5z M-348.2,29.3V27h2.3v2.3L-348.2,29.3z M-343.5,29.3V27h2.3v2.3H-343.5z
				 M-343.5,29.3V27h2.3v2.3H-343.5z M-348.2,29.3V27h2.3v2.3L-348.2,29.3z M-343.5,29.3V27h2.3v2.3H-343.5z M-343.5,29.3V27h2.3
				v2.3H-343.5z M-343.5,29.3V27h2.3v2.3H-343.5z M-343.5,29.3V27h2.3v2.3H-343.5z M-343.5,29.3V27h2.3v2.3H-343.5z M-338.9,29.3V27
				l2.3,0v2.3H-338.9z M-334.2,29.3V27h2.3v2.3H-334.2z M-334.2,29.3V27h2.3v2.3H-334.2z M-329.6,29.3V27h2.3v2.3H-329.6z
				 M-329.6,29.3V27h2.3v2.3H-329.6z M-334.2,29.3V27h2.3v2.3H-334.2z M-329.6,29.3V27h2.3v2.3H-329.6z M-329.6,29.3V27h2.3v2.3
				H-329.6z M-334.2,29.3V27h2.3v2.3H-334.2z M-329.6,29.3V27h2.3v2.3H-329.6z M-329.6,29.3V27h2.3v2.3H-329.6z M-329.6,29.3V27h2.3
				v2.3H-329.6z M-329.6,29.3V27h2.3v2.3H-329.6z M-329.6,29.3V27h2.3v2.3H-329.6z M-329.6,29.3V27h2.3v2.3H-329.6z M-324.9,29.3V27
				h2.3v2.3L-324.9,29.3z M-324.9,29.3V27h2.3v2.3L-324.9,29.3z M-329.6,29.3V27h2.3v2.3H-329.6z M-324.9,29.3V27h2.3v2.3
				L-324.9,29.3z M-324.9,29.3V27h2.3v2.3L-324.9,29.3z M-329.6,29.3V27h2.3v2.3H-329.6z M-324.9,29.3V27h2.3v2.3L-324.9,29.3z
				 M-324.9,29.3V27h2.3v2.3L-324.9,29.3z M-324.9,29.3V27h2.3v2.3L-324.9,29.3z M-324.9,29.3V27h2.3v2.3L-324.9,29.3z M-324.9,29.3
				V27h2.3v2.3L-324.9,29.3z M-324.9,29.3V27h2.3v2.3L-324.9,29.3z M-324.9,29.3V27h2.3v2.3L-324.9,29.3z M-324.9,29.3V27h2.3v2.3
				L-324.9,29.3z M-324.9,29.3V27h2.3v2.3L-324.9,29.3z M-324.9,29.3V27h2.3v2.3L-324.9,29.3z M-324.9,29.3V27h2.3v2.3L-324.9,29.3z
				 M-324.9,29.3V27h2.3v2.3L-324.9,29.3z M-324.9,29.3V27h2.3v2.3L-324.9,29.3z M-324.9,29.3V27h2.3v2.3L-324.9,29.3z M-320.3,29.3
				V27h2.3v2.3H-320.3z M-320.3,29.3V27h2.3v2.3H-320.3z M-324.9,29.3V27h2.3v2.3L-324.9,29.3z M-320.3,29.3V27h2.3v2.3H-320.3z
				 M-320.3,29.3V27h2.3v2.3H-320.3z M-324.9,29.3V27h2.3v2.3L-324.9,29.3z M-320.3,29.3V27h2.3v2.3H-320.3z M-320.3,29.3V27h2.3
				v2.3H-320.3z M-320.3,29.3V27h2.3v2.3H-320.3z M-320.3,29.3V27h2.3v2.3H-320.3z M-315.6,29.3V27h2.3l0,2.3H-315.6z M-315.6,29.3
				V27h2.3l0,2.3H-315.6z M-315.6,29.3V27h2.3l0,2.3H-315.6z M-315.6,29.3V27h2.3l0,2.3H-315.6z M-315.6,29.3V27h2.3l0,2.3H-315.6z
				 M-315.6,29.3V27h2.3l0,2.3H-315.6z M-315.6,29.3V27h2.3v2.3H-315.6z M-315.6,29.3V27h2.3l0,2.3H-315.6z M-315.6,29.3V27h2.3v2.3
				H-315.6z M-315.6,29.3V27h2.3l0,2.3H-315.6z M-315.6,29.3V27h2.3l0,2.3H-315.6z M-311,29.3V27h2.3v2.3H-311z M-311,29.3V27h2.3
				v2.3H-311z M-315.6,29.3V27h2.3l0,2.3H-315.6z M-311,29.3V27h2.3v2.3H-311z M-311,29.3V27h2.3v2.3H-311z M-315.6,29.3V27h2.3
				l0,2.3H-315.6z M-311,29.3V27h2.3v2.3H-311z M-311,29.3V27h2.3v2.3H-311z M-311,29.3V27h2.3v2.3H-311z M-311,29.3V27h2.3v2.3
				H-311z M-311,29.3V27h2.3v2.3H-311z M-311,29.3V27h2.3v2.3H-311z M-311,29.3V27h2.3v2.3H-311z M-311,29.3V27h2.3v2.3H-311z
				 M-311,29.3V27h2.3v2.3H-311z M-311,29.3V27h2.3v2.3H-311z M-311,29.3V27h2.3v2.3H-311z M-311,29.3V27h2.3v2.3H-311z M-311,29.3
				V27h2.3v2.3H-311z M-311,29.3V27h2.3v2.3H-311z M-306.3,29.3V27h2.3v2.3L-306.3,29.3z M-306.3,29.3V27h2.3v2.3L-306.3,29.3z
				 M-311,29.3V27h2.3v2.3H-311z M-306.3,29.3V27h2.3v2.3L-306.3,29.3z M-306.3,29.3V27h2.3v2.3L-306.3,29.3z M-311,29.3V27h2.3v2.3
				H-311z M-306.3,29.3V27h2.3v2.3L-306.3,29.3z M-306.3,29.3V27h2.3v2.3L-306.3,29.3z M-306.3,29.3V27h2.3v2.3L-306.3,29.3z
				 M-306.3,29.3V27h2.3v2.3L-306.3,29.3z M-301.7,29.3V27l2.3,0v2.3H-301.7z"/>
		</g>
		<g>
			<path d="M-366.8,102.9v-2.3h2.3v2.3H-366.8z M-362.1,102.9v-2.3l2.3,0v2.3H-362.1z M-357.5,102.9v-2.3h2.3v2.3H-357.5z
				 M-352.8,102.9v-2.3h2.3v2.3H-352.8z M-376.1,102.9v-2.3h2.3v2.3H-376.1z M-371.4,102.9v-2.3h2.3v2.3H-371.4z M-366.8,102.9v-2.3
				h2.3v2.3H-366.8z M-362.1,102.9v-2.3l2.3,0v2.3H-362.1z M-348.2,102.9v-2.3h2.3v2.3L-348.2,102.9z M-348.2,102.9v-2.3h2.3v2.3
				L-348.2,102.9z M-343.5,102.9v-2.3h2.3v2.3H-343.5z M-343.5,102.9v-2.3h2.3v2.3H-343.5z M-348.2,102.9v-2.3h2.3v2.3L-348.2,102.9
				z M-343.5,102.9v-2.3h2.3v2.3H-343.5z M-343.5,102.9v-2.3h2.3v2.3H-343.5z M-348.2,102.9v-2.3h2.3v2.3L-348.2,102.9z
				 M-343.5,102.9v-2.3h2.3v2.3H-343.5z M-343.5,102.9v-2.3h2.3v2.3H-343.5z M-343.5,102.9v-2.3h2.3v2.3H-343.5z M-343.5,102.9v-2.3
				h2.3v2.3H-343.5z M-343.5,102.9v-2.3h2.3v2.3H-343.5z M-338.9,102.9v-2.3h2.3v2.3H-338.9z M-334.2,102.9v-2.3h2.3v2.3H-334.2z
				 M-334.2,102.9v-2.3h2.3v2.3H-334.2z M-329.6,102.9v-2.3h2.3v2.3H-329.6z M-329.6,102.9v-2.3h2.3v2.3H-329.6z M-334.2,102.9v-2.3
				h2.3v2.3H-334.2z M-329.6,102.9v-2.3h2.3v2.3H-329.6z M-329.6,102.9v-2.3h2.3v2.3H-329.6z M-334.2,102.9v-2.3h2.3v2.3H-334.2z
				 M-329.6,102.9v-2.3h2.3v2.3H-329.6z M-329.6,102.9v-2.3h2.3v2.3H-329.6z M-329.6,102.9v-2.3h2.3v2.3H-329.6z M-329.6,102.9v-2.3
				h2.3v2.3H-329.6z M-329.6,102.9v-2.3h2.3v2.3H-329.6z M-329.6,102.9v-2.3h2.3v2.3H-329.6z M-324.9,102.9v-2.3h2.3v2.3H-324.9z
				 M-324.9,102.9v-2.3h2.3v2.3H-324.9z M-329.6,102.9v-2.3h2.3v2.3H-329.6z M-324.9,102.9v-2.3h2.3v2.3H-324.9z M-324.9,102.9v-2.3
				h2.3v2.3H-324.9z M-329.6,102.9v-2.3h2.3v2.3H-329.6z M-324.9,102.9v-2.3h2.3v2.3H-324.9z M-324.9,102.9v-2.3h2.3v2.3H-324.9z
				 M-324.9,102.9v-2.3h2.3v2.3H-324.9z M-324.9,102.9v-2.3h2.3v2.3H-324.9z M-324.9,102.9v-2.3h2.3v2.3H-324.9z M-324.9,102.9v-2.3
				h2.3v2.3H-324.9z M-324.9,102.9v-2.3h2.3v2.3H-324.9z M-324.9,102.9v-2.3h2.3v2.3H-324.9z M-324.9,102.9v-2.3h2.3v2.3H-324.9z
				 M-324.9,102.9v-2.3h2.3v2.3H-324.9z M-324.9,102.9v-2.3h2.3v2.3H-324.9z M-324.9,102.9v-2.3h2.3v2.3H-324.9z M-324.9,102.9v-2.3
				h2.3v2.3H-324.9z M-324.9,102.9v-2.3h2.3v2.3H-324.9z M-320.3,102.9v-2.3h2.3v2.3H-320.3z M-320.3,102.9v-2.3h2.3v2.3H-320.3z
				 M-324.9,102.9v-2.3h2.3v2.3H-324.9z M-320.3,102.9v-2.3h2.3v2.3H-320.3z M-320.3,102.9v-2.3h2.3v2.3H-320.3z M-324.9,102.9v-2.3
				h2.3v2.3H-324.9z M-320.3,102.9v-2.3h2.3v2.3H-320.3z M-320.3,102.9v-2.3h2.3v2.3H-320.3z M-320.3,102.9v-2.3h2.3v2.3H-320.3z
				 M-320.3,102.9v-2.3h2.3v2.3H-320.3z M-315.6,102.9v-2.3h2.3l0,2.3H-315.6z M-315.6,102.9v-2.3h2.3l0,2.3H-315.6z M-315.6,102.9
				v-2.3h2.3l0,2.3H-315.6z M-315.6,102.9v-2.3h2.3l0,2.3H-315.6z M-315.6,102.9v-2.3h2.3l0,2.3H-315.6z M-315.6,102.9v-2.3h2.3
				l0,2.3H-315.6z M-315.6,102.9v-2.3h2.3v2.3H-315.6z M-315.6,102.9v-2.3h2.3l0,2.3H-315.6z M-315.6,102.9v-2.3h2.3v2.3H-315.6z
				 M-315.6,102.9v-2.3h2.3l0,2.3H-315.6z M-315.6,102.9v-2.3h2.3l0,2.3H-315.6z M-311,102.9v-2.3h2.3v2.3H-311z M-311,102.9v-2.3
				h2.3v2.3H-311z M-315.6,102.9v-2.3h2.3l0,2.3H-315.6z M-311,102.9v-2.3h2.3v2.3H-311z M-311,102.9v-2.3h2.3v2.3H-311z
				 M-315.6,102.9v-2.3h2.3l0,2.3H-315.6z M-311,102.9v-2.3h2.3v2.3H-311z M-311,102.9v-2.3h2.3v2.3H-311z M-311,102.9v-2.3h2.3v2.3
				H-311z M-311,102.9v-2.3h2.3v2.3H-311z M-311,102.9v-2.3h2.3v2.3H-311z M-311,102.9v-2.3h2.3v2.3H-311z M-311,102.9v-2.3h2.3v2.3
				H-311z M-311,102.9v-2.3h2.3v2.3H-311z M-311,102.9v-2.3h2.3v2.3H-311z M-311,102.9v-2.3h2.3v2.3H-311z M-311,102.9v-2.3h2.3v2.3
				H-311z M-311,102.9v-2.3h2.3v2.3H-311z M-311,102.9v-2.3h2.3v2.3H-311z M-311,102.9v-2.3h2.3v2.3H-311z M-306.3,102.9v-2.3h2.3
				v2.3H-306.3z M-306.3,102.9v-2.3h2.3v2.3H-306.3z M-311,102.9v-2.3h2.3v2.3H-311z M-306.3,102.9v-2.3h2.3v2.3H-306.3z
				 M-306.3,102.9v-2.3h2.3v2.3H-306.3z M-311,102.9v-2.3h2.3v2.3H-311z M-306.3,102.9v-2.3h2.3v2.3H-306.3z M-306.3,102.9v-2.3h2.3
				v2.3H-306.3z M-306.3,102.9v-2.3h2.3v2.3H-306.3z M-306.3,102.9v-2.3h2.3v2.3H-306.3z M-301.7,102.9v-2.3h2.3v2.3H-301.7z"/>
		</g>
	</g>
	<g>
		<text transform="matrix(1 0 0 1 780.8081 207.831)" class="st1" style="font-size:48.8271px;">Наклон</text>
		<text transform="matrix(1 0 0 1 797.3638 257.4999)" style="font-family:'Gilroy-Regular'; font-size:30.2263px;">+5° ~ -10°</text>
		<g>
			<g>
				<path d="M875.9,64.8c0,0,0,0.1,0,0.1c0,16.1-6.3,31.3-16.7,40.6l-1.5-1.7c9.9-8.9,15.9-23.4,15.9-38.8c0,0,0-0.1,0-0.1
					c0-15.5-5.8-29.5-15.9-38.6l1.6-1.7C869.8,33.9,875.9,48.6,875.9,64.8z"/>
				<g>
					<polygon points="861.4,106.6 854.5,107.7 857,101.2 					"/>
				</g>
				<g>
					<polygon points="861.3,23.3 854.5,22.1 856.9,28.6 					"/>
				</g>
			</g>
			<g>
				<path d="M926,127.2H771.5c-5.4,0-9.8-4.4-9.8-9.8c0-0.2,0-0.5,0.1-0.7l21-105c0.2-5.2,4.5-9.4,9.8-9.4h154.5
					c5.4,0,9.8,4.4,9.8,9.8c0,0.2,0,0.5-0.1,0.7l-21,105C935.6,123.1,931.3,127.2,926,127.2z M768.7,117.7c0.1,1.4,1.3,2.5,2.8,2.5
					H926c1.5,0,2.8-1.3,2.8-2.8c0-0.2,0-0.5,0.1-0.7l21-104.9c-0.1-1.4-1.3-2.5-2.8-2.5H792.6c-1.5,0-2.8,1.3-2.8,2.8
					c0,0.2,0,0.5-0.1,0.7L768.7,117.7z"/>
			</g>
			<path d="M947.1,124.9h-0.6v-2.3h0.6c0.5,0,1-0.1,1.4-0.2l0.6,2.2C948.5,124.8,947.8,124.9,947.1,124.9z M944.2,124.9h-2.3v-2.3
				h2.3V124.9z M939.6,124.9h-2.3v-2.3h2.3V124.9z M934.9,124.9h-2.3v-2.3h2.3V124.9z M930.3,124.9h-2.3v-2.3h2.3V124.9z
				 M925.6,124.9h-2.3v-2.3h2.3V124.9z M921,124.9h-2.3v-2.3h2.3V124.9z M916.3,124.9H914v-2.3h2.3V124.9z M911.7,124.9h-2.3v-2.3
				h2.3V124.9z M907,124.9h-2.3v-2.3h2.3V124.9z M902.4,124.9H900v-2.3h2.3V124.9z M897.7,124.9h-2.3v-2.3h2.3V124.9z M893.1,124.9
				h-2.3v-2.3h2.3V124.9z M888.4,124.9h-2.3v-2.3h2.3V124.9z M883.8,124.9h-2.3v-2.3h2.3V124.9z M879.1,124.9h-2.3v-2.3h2.3V124.9z
				 M874.5,124.9h-2.3v-2.3h2.3V124.9z M869.8,124.9h-2.3v-2.3h2.3V124.9z M865.2,124.9h-2.3v-2.3h2.3V124.9z M860.5,124.9h-2.3
				v-2.3h2.3V124.9z M855.9,124.9h-2.3v-2.3h2.3V124.9z M851.2,124.9h-2.3v-2.3h2.3V124.9z M846.6,124.9h-2.3v-2.3h2.3V124.9z
				 M841.9,124.9h-2.3v-2.3h2.3V124.9z M837.3,124.9H835v-2.3h2.3V124.9z M832.6,124.9h-2.3v-2.3h2.3V124.9z M828,124.9h-2.3v-2.3
				h2.3V124.9z M823.3,124.9H821v-2.3h2.3V124.9z M818.7,124.9h-2.3v-2.3h2.3V124.9z M814,124.9h-2.3v-2.3h2.3V124.9z M809.4,124.9
				h-2.3v-2.3h2.3V124.9z M804.7,124.9h-2.3v-2.3h2.3V124.9z M800.1,124.9h-2.3v-2.3h2.3V124.9z M795.4,124.9h-2.3v-2.3h2.3V124.9z
				 M790.5,124.6c-0.9-0.3-1.7-0.7-2.5-1.2l1.4-1.9c0.5,0.4,1.1,0.7,1.7,0.8L790.5,124.6z M951.6,123.4l-1.4-1.9
				c0.5-0.4,0.9-0.9,1.3-1.4l2,1.2C953,122.1,952.3,122.8,951.6,123.4z M786.2,121.4c-0.5-0.8-0.8-1.7-1-2.6l2.3-0.4
				c0.1,0.6,0.3,1.2,0.7,1.8L786.2,121.4z M954.4,118.8l-2.3-0.4c0.1-0.3,0.1-0.6,0.1-0.9l-0.2-0.9l2.3-0.5l0.2,1.2
				C954.6,117.9,954.5,118.4,954.4,118.8z M784.9,116.5l-0.5-2.3l2.3-0.5l0.5,2.3L784.9,116.5z M951.6,114.2l-0.5-2.3l2.3-0.5
				l0.5,2.3L951.6,114.2z M784,112l-0.5-2.3l2.3-0.5l0.5,2.3L784,112z M950.7,109.7l-0.5-2.3l2.3-0.5l0.5,2.3L950.7,109.7z
				 M783.1,107.4l-0.5-2.3l2.3-0.5l0.5,2.3L783.1,107.4z M949.7,105.1l-0.5-2.3l2.3-0.5l0.5,2.3L949.7,105.1z M782.1,102.9l-0.5-2.3
				l2.3-0.5l0.5,2.3L782.1,102.9z M948.8,100.6l-0.5-2.3l2.3-0.5l0.5,2.3L948.8,100.6z M781.2,98.3l-0.5-2.3l2.3-0.5l0.5,2.3
				L781.2,98.3z M947.9,96l-0.5-2.3l2.3-0.5l0.5,2.3L947.9,96z M780.3,93.7l-0.5-2.3l2.3-0.5l0.5,2.3L780.3,93.7z M947,91.4
				l-0.5-2.3l2.3-0.5l0.5,2.3L947,91.4z M779.4,89.2l-0.5-2.3l2.3-0.5l0.5,2.3L779.4,89.2z M946.1,86.9l-0.5-2.3l2.3-0.5l0.5,2.3
				L946.1,86.9z M778.5,84.6l-0.5-2.3l2.3-0.5l0.5,2.3L778.5,84.6z M945.2,82.3l-0.5-2.3l2.3-0.5l0.5,2.3L945.2,82.3z M777.6,80.1
				l-0.5-2.3l2.3-0.5l0.5,2.3L777.6,80.1z M944.3,77.8l-0.5-2.3l2.3-0.5l0.5,2.3L944.3,77.8z M776.7,75.5l-0.5-2.3l2.3-0.5L779,75
				L776.7,75.5z M943.4,73.2l-0.5-2.3l2.3-0.5l0.5,2.3L943.4,73.2z M775.8,70.9l-0.5-2.3l2.3-0.5l0.5,2.3L775.8,70.9z M942.4,68.6
				l-0.5-2.3l2.3-0.5l0.5,2.3L942.4,68.6z M774.9,66.4l-0.5-2.3l2.3-0.5l0.5,2.3L774.9,66.4z M773.9,61.8l-0.5-2.3l2.3-0.5l0.5,2.3
				L773.9,61.8z M773,57.3l-0.5-2.3l2.3-0.5l0.5,2.3L773,57.3z M772.1,52.7l-0.5-2.3l2.3-0.5l0.5,2.3L772.1,52.7z M771.2,48.1
				l-0.5-2.3l2.3-0.5l0.5,2.3L771.2,48.1z M770.3,43.6l-0.5-2.3l2.3-0.5l0.5,2.3L770.3,43.6z M769.4,39l-0.5-2.3l2.3-0.5l0.5,2.3
				L769.4,39z M768.5,34.5l-0.5-2.3l2.3-0.5l0.5,2.3L768.5,34.5z M767.6,29.9l-0.5-2.3l2.3-0.5l0.5,2.3L767.6,29.9z M766.7,25.3
				l-0.5-2.3l2.3-0.5l0.5,2.3L766.7,25.3z M765.7,20.8l-0.5-2.3l2.3-0.5l0.5,2.3L765.7,20.8z M764.8,16.2l-0.5-2.3l2.3-0.5l0.5,2.3
				L764.8,16.2z M766.4,11.5l-2.3-0.3c0.1-0.9,0.4-1.8,0.8-2.6l2.1,1.1C766.7,10.3,766.5,10.9,766.4,11.5z M768.1,8.3l-1.5-1.8
				c0.7-0.6,1.5-1.1,2.4-1.4l0.8,2.2C769.1,7.5,768.6,7.9,768.1,8.3z M792.6,7h-2.3V4.7h2.3V7z M787.9,7h-2.3V4.7h2.3V7z M783.3,7
				h-2.3V4.7h2.3V7z M778.6,7h-2.3V4.7h2.3V7z M774,7h-2.3V4.7h2.3V7z"/>
		</g>
	</g>
	<g>
		<text transform="matrix(1 0 0 1 298.9907 207.831)" class="st1" style="font-size:48.8271px;">Вылет от стены</text>
		<text transform="matrix(1 0 0 1 421.3882 257.4999)" style="font-family:'Gilroy-Regular'; font-size:30.2263px;">8.5 см</text>
		<g>
			<g>
				<path d="M466.9,126.4c-1.9,0-3.4-1.5-3.4-3.4V6.6c0-1.9,1.5-3.4,3.4-3.4s3.4,1.5,3.4,3.4V123
					C470.4,124.9,468.8,126.4,466.9,126.4z"/>
				<path d="M466.9,127.2c-2.3,0-4.3-1.9-4.3-4.3V6.6c0-2.3,1.9-4.3,4.3-4.3c2.3,0,4.3,1.9,4.3,4.3V123
					C471.2,125.3,469.3,127.2,466.9,127.2z M466.9,3.9c-1.4,0-2.6,1.2-2.6,2.6V123c0,1.5,1.2,2.6,2.6,2.6c1.4,0,2.6-1.2,2.6-2.6V6.6
					C469.6,5.1,468.4,3.9,466.9,3.9z"/>
			</g>
			<g>
				<path d="M460.5,78.2c-1.7,0-3-1.3-3-3V54.3c0-1.7,1.3-3,3-3s3,1.3,3,3v20.9C463.5,76.9,462.1,78.2,460.5,78.2z"/>
				<path d="M460.5,79c-2.1,0-3.8-1.7-3.8-3.8V54.3c0-2.1,1.7-3.8,3.8-3.8c2.1,0,3.8,1.7,3.8,3.8v20.9C464.3,77.3,462.6,79,460.5,79
					z M460.5,52.2c-1.2,0-2.2,1-2.2,2.2v20.9c0,1.2,1,2.2,2.2,2.2c1.2,0,2.2-1,2.2-2.2V54.3C462.7,53.1,461.7,52.2,460.5,52.2z"/>
			</g>
			<g>
				<path d="M452.4,86.7c-1.9,0-3.4-1.5-3.4-3.4V44.6c0-1.9,1.5-3.4,3.4-3.4s3.4,1.5,3.4,3.4v38.7C455.9,85.2,454.3,86.7,452.4,86.7
					z"/>
				<path d="M452.4,87.5c-2.3,0-4.3-1.9-4.3-4.3V44.6c0-2.3,1.9-4.3,4.3-4.3c2.3,0,4.3,1.9,4.3,4.3v38.7
					C456.7,85.6,454.8,87.5,452.4,87.5z M452.4,41.9c-1.5,0-2.6,1.2-2.6,2.6v38.7c0,1.5,1.2,2.6,2.6,2.6c1.4,0,2.6-1.2,2.6-2.6V44.6
					C455.1,43.1,453.9,41.9,452.4,41.9z"/>
			</g>
			<g>
				<line x1="449.1" y1="113" x2="449.1" y2="15"/>
				<path d="M449.1,113.9c-0.5,0-1-0.4-1-1V15c0-0.5,0.4-1,1-1s1,0.4,1,1v98C450,113.5,449.6,113.9,449.1,113.9z"/>
			</g>
		</g>
	</g>
</g>
</svg>
