<?xml version="1.0" encoding="utf-8"?>
<!-- Generator: Adobe Illustrator 27.2.0, SVG Export Plug-In . SVG Version: 6.00 Build 0)  -->
<svg version="1.1" id="Слой_1" xmlns="http://www.w3.org/2000/svg" xmlns:xlink="http://www.w3.org/1999/xlink" x="0px" y="0px"
	 viewBox="0 0 27.5 128.5" style="enable-background:new 0 0 27.5 128.5;" xml:space="preserve">
<style type="text/css">
	.st0{fill:#1D1D1B;}
</style>
<g>
	<text transform="matrix(1 0 0 1 696.1626 207.1777)" style="font-family:'Gilroy-Bold'; font-size:48.8271px;">Диагональ</text>
	<text transform="matrix(1 0 0 1 750.4653 257.4999)"><tspan x="0" y="0" style="font-family:'Gilroy-Regular'; font-size:30.2263px;">60</tspan><tspan x="31" y="0" style="font-family:'Gilroy-Regular'; font-size:30.2263px;">&quot;</tspan><tspan x="41.8" y="0" style="font-family:'Gilroy-Regular'; font-size:30.2263px;">–</tspan><tspan x="56.9" y="0" style="font-family:'Gilroy-Regular'; font-size:30.2263px; letter-spacing:-2;"> </tspan><tspan x="60.9" y="0" style="font-family:'Gilroy-Regular'; font-size:30.2263px;">110&quot;</tspan></text>
	<g>
		<g>
			<rect x="719" y="64.9" transform="matrix(0.8654 -0.5011 0.5011 0.8654 75.4679 413.1736)" width="175.7" height="2.3"/>
			<g>
				<polygon points="733.4,112.6 726.5,112.6 729.9,106.6 				"/>
			</g>
			<g>
				<polygon points="883.7,25.6 887.2,19.6 880.2,19.6 				"/>
			</g>
		</g>
		<path d="M895.8,127.2H722.7c-5.4,0-9.8-4.4-9.8-9.8V12.1c0-5.4,4.4-9.8,9.8-9.8h173.2c5.4,0,9.8,4.4,9.8,9.8v105.3
			C905.6,122.8,901.2,127.2,895.8,127.2z M722.7,9.3c-1.5,0-2.8,1.3-2.8,2.8v105.3c0,1.5,1.3,2.8,2.8,2.8h173.2
			c1.5,0,2.8-1.3,2.8-2.8V12.1c0-1.5-1.3-2.8-2.8-2.8H722.7z"/>
	</g>
	<text transform="matrix(1 0 0 1 -838.6396 207.1777)" style="font-family:'Gilroy-Bold'; font-size:48.8271px;">VESA</text>
	<text transform="matrix(1 0 0 1 -904.1045 257.4999)" style="font-family:'Gilroy-Regular'; font-size:30.2263px;">200x200 - 900x600</text>
	<text transform="matrix(1 0 0 1 -484.4453 207.831)" style="font-family:'Gilroy-Bold'; font-size:48.8271px;">Нагрузка</text>
	<text transform="matrix(1 0 0 1 -427.5088 257.4999)" style="font-family:'Gilroy-Regular'; font-size:30.2263px;">120 кг</text>
	<g>
		<path d="M-335.8,127.2h-105.4c-3.9,0-7.1-3.2-7.1-7.1V38.8c0-3.9,3.2-7.1,7.1-7.1h32.5l0.1-7l-10.8-0.1c-3.9,0-7.1-3.2-7.1-7.1
			V6.7c0-3.9,3.2-7.1,7.1-7.1h61.9c3.9,0,7.1,3.2,7.1,7.1v10.7c0,3.9-3.2,7.1-7.1,7.1h-10.7l-0.1,7c0,0.1,0.1,0.1,0.1,0.1h32.5
			c3.9,0,7.1,3.2,7.1,7.1v81.4C-328.7,124-331.8,127.2-335.8,127.2z M-441.2,38.7l-0.1,81.5l105.5,0.1l0.1-81.5l-32.6-0.1
			c-3.9,0-7.1-3.2-7.1-7.1v-6.9c0-3.9,3.2-7.1,7.1-7.1h10.7l0.1-10.8l-14.4-0.1h-47.5l-0.1,10.8l10.8,0.1c3.9,0,7.1,3.2,7.1,7.1v6.9
			c0,3.9-3.2,7.1-7.1,7.1H-441.2z"/>
		<text transform="matrix(1 0 0 1 -409.3433 91.4824)" style="fill:none; font-family:'Gilroy-Bold'; font-size:49.433px;">кг</text>
	</g>
	<g>
		<path class="st0" d="M-699.7,127.2h-173.2c-5.4,0-9.8-4.4-9.8-9.8V12.1c0-5.4,4.4-9.8,9.8-9.8h173.2c5.4,0,9.8,4.4,9.8,9.8v105.3
			C-689.9,122.8-694.3,127.2-699.7,127.2z M-872.9,9.3c-1.5,0-2.8,1.3-2.8,2.8v105.3c0,1.5,1.3,2.8,2.8,2.8h173.2
			c1.5,0,2.8-1.3,2.8-2.8V12.1c0-1.5-1.3-2.8-2.8-2.8H-872.9z"/>
		<circle cx="-831.3" cy="28.2" r="3.5"/>
		<circle cx="-831.3" cy="101.7" r="3.5"/>
		<circle cx="-740.9" cy="101.7" r="3.5"/>
		<circle cx="-740.9" cy="28.2" r="3.5"/>
		<g>
			<path d="M-739.7,82.7h-2.3v-2.3h2.3V82.7z M-739.7,78.1h-2.3v-2.3h2.3V78.1z M-739.7,73.4h-2.3v-2.3h2.3V73.4z M-739.7,68.8h-2.3
				v-2.3h2.3V68.8z M-739.7,96.7h-2.3v-2.3h2.3V96.7z M-739.7,92h-2.3v-2.3h2.3V92z M-739.7,87.4h-2.3v-2.3h2.3V87.4z M-739.7,82.7
				h-2.3v-2.3h2.3V82.7z M-739.7,64.1h-2.3v-2.3h2.3V64.1z M-739.7,64.1h-2.3v-2.3h2.3V64.1z M-739.7,59.5h-2.3v-2.3h2.3V59.5z
				 M-739.7,59.5h-2.3v-2.3h2.3V59.5z M-739.7,64.1h-2.3v-2.3h2.3V64.1z M-739.7,59.5h-2.3v-2.3h2.3V59.5z M-739.7,59.5h-2.3v-2.3
				h2.3V59.5z M-739.7,64.1h-2.3v-2.3h2.3V64.1z M-739.7,59.5h-2.3v-2.3h2.3V59.5z M-739.7,59.5h-2.3v-2.3h2.3V59.5z M-739.7,59.5
				h-2.3v-2.3h2.3V59.5z M-739.7,59.5h-2.3v-2.3h2.3V59.5z M-739.7,54.8h-2.3v-2.3h2.3V54.8z M-739.7,50.2h-2.3v-2.3h2.3V50.2z
				 M-739.7,50.2h-2.3v-2.3h2.3V50.2z M-739.7,50.2h-2.3v-2.3h2.3V50.2z M-739.7,50.2h-2.3v-2.3h2.3V50.2z M-739.7,50.2h-2.3v-2.3
				h2.3V50.2z M-739.7,50.2h-2.3v-2.3h2.3V50.2z M-739.7,50.2h-2.3v-2.3h2.3V50.2z M-739.7,50.2h-2.3v-2.3h2.3V50.2z M-739.7,50.2
				h-2.3v-2.3h2.3V50.2z M-739.7,45.5h-2.3v-2.3h2.3V45.5z M-739.7,40.9h-2.3v-2.3h2.3V40.9z M-739.7,40.9h-2.3v-2.3h2.3V40.9z
				 M-739.7,36.2h-2.3v-2.3h2.3V36.2z"/>
		</g>
		<g>
			<path d="M-830.1,82.7h-2.3v-2.3h2.3V82.7z M-830.1,78.1h-2.3v-2.3h2.3V78.1z M-830.1,73.4h-2.3v-2.3h2.3V73.4z M-830.1,68.8h-2.3
				v-2.3h2.3V68.8z M-830.1,96.7h-2.3v-2.3h2.3V96.7z M-830.1,92h-2.3v-2.3h2.3V92z M-830.1,87.4h-2.3v-2.3h2.3V87.4z M-830.1,82.7
				h-2.3v-2.3h2.3V82.7z M-830.1,64.1h-2.3v-2.3h2.3V64.1z M-830.1,64.1h-2.3v-2.3h2.3V64.1z M-830.1,59.5h-2.3v-2.3h2.3V59.5z
				 M-830.1,59.5h-2.3v-2.3h2.3V59.5z M-830.1,64.1h-2.3v-2.3h2.3V64.1z M-830.1,59.5h-2.3v-2.3h2.3V59.5z M-830.1,59.5h-2.3v-2.3
				h2.3V59.5z M-830.1,64.1h-2.3v-2.3h2.3V64.1z M-830.1,59.5h-2.3v-2.3h2.3V59.5z M-830.1,59.5h-2.3v-2.3h2.3V59.5z M-830.1,59.5
				h-2.3v-2.3h2.3V59.5z M-830.1,59.5h-2.3v-2.3h2.3V59.5z M-830.1,54.8h-2.3v-2.3h2.3V54.8z M-830.1,50.2h-2.3v-2.3h2.3V50.2z
				 M-830.1,50.2h-2.3v-2.3h2.3V50.2z M-830.1,50.2h-2.3v-2.3h2.3V50.2z M-830.1,50.2h-2.3v-2.3h2.3V50.2z M-830.1,50.2h-2.3v-2.3
				h2.3V50.2z M-830.1,50.2h-2.3v-2.3h2.3V50.2z M-830.1,50.2h-2.3v-2.3h2.3V50.2z M-830.1,50.2h-2.3v-2.3h2.3V50.2z M-830.1,50.2
				h-2.3v-2.3h2.3V50.2z M-830.1,45.5h-2.3v-2.3h2.3V45.5z M-830.1,40.9h-2.3v-2.3h2.3V40.9z M-830.1,40.9h-2.3v-2.3h2.3V40.9z
				 M-830.1,36.2h-2.3v-2.3h2.3V36.2z"/>
		</g>
		<g>
			<path d="M-814.8,29.3V27h2.3v2.3H-814.8z M-810.1,29.3V27l2.3,0v2.3H-810.1z M-805.5,29.3V27h2.3v2.3H-805.5z M-800.8,29.3V27
				h2.3v2.3H-800.8z M-824.1,29.3V27h2.3v2.3H-824.1z M-819.4,29.3V27h2.3v2.3L-819.4,29.3z M-814.8,29.3V27h2.3v2.3H-814.8z
				 M-810.1,29.3V27l2.3,0v2.3H-810.1z M-796.2,29.3V27h2.3v2.3L-796.2,29.3z M-796.2,29.3V27h2.3v2.3L-796.2,29.3z M-791.5,29.3V27
				h2.3v2.3H-791.5z M-791.5,29.3V27h2.3v2.3H-791.5z M-796.2,29.3V27h2.3v2.3L-796.2,29.3z M-791.5,29.3V27h2.3v2.3H-791.5z
				 M-791.5,29.3V27h2.3v2.3H-791.5z M-796.2,29.3V27h2.3v2.3L-796.2,29.3z M-791.5,29.3V27h2.3v2.3H-791.5z M-791.5,29.3V27h2.3
				v2.3H-791.5z M-791.5,29.3V27h2.3v2.3H-791.5z M-791.5,29.3V27h2.3v2.3H-791.5z M-791.5,29.3V27h2.3v2.3H-791.5z M-786.9,29.3V27
				l2.3,0v2.3H-786.9z M-782.2,29.3V27h2.3v2.3H-782.2z M-782.2,29.3V27h2.3v2.3H-782.2z M-777.6,29.3V27h2.3v2.3H-777.6z
				 M-777.6,29.3V27h2.3v2.3H-777.6z M-782.2,29.3V27h2.3v2.3H-782.2z M-777.6,29.3V27h2.3v2.3H-777.6z M-777.6,29.3V27h2.3v2.3
				H-777.6z M-782.2,29.3V27h2.3v2.3H-782.2z M-777.6,29.3V27h2.3v2.3H-777.6z M-777.6,29.3V27h2.3v2.3H-777.6z M-777.6,29.3V27h2.3
				v2.3H-777.6z M-777.6,29.3V27h2.3v2.3H-777.6z M-777.6,29.3V27h2.3v2.3H-777.6z M-777.6,29.3V27h2.3v2.3H-777.6z M-772.9,29.3V27
				h2.3v2.3L-772.9,29.3z M-772.9,29.3V27h2.3v2.3L-772.9,29.3z M-777.6,29.3V27h2.3v2.3H-777.6z M-772.9,29.3V27h2.3v2.3
				L-772.9,29.3z M-772.9,29.3V27h2.3v2.3L-772.9,29.3z M-777.6,29.3V27h2.3v2.3H-777.6z M-772.9,29.3V27h2.3v2.3L-772.9,29.3z
				 M-772.9,29.3V27h2.3v2.3L-772.9,29.3z M-772.9,29.3V27h2.3v2.3L-772.9,29.3z M-772.9,29.3V27h2.3v2.3L-772.9,29.3z M-772.9,29.3
				V27h2.3v2.3L-772.9,29.3z M-772.9,29.3V27h2.3v2.3L-772.9,29.3z M-772.9,29.3V27h2.3v2.3L-772.9,29.3z M-772.9,29.3V27h2.3v2.3
				L-772.9,29.3z M-772.9,29.3V27h2.3v2.3L-772.9,29.3z M-772.9,29.3V27h2.3v2.3L-772.9,29.3z M-772.9,29.3V27h2.3v2.3L-772.9,29.3z
				 M-772.9,29.3V27h2.3v2.3L-772.9,29.3z M-772.9,29.3V27h2.3v2.3L-772.9,29.3z M-772.9,29.3V27h2.3v2.3L-772.9,29.3z M-768.3,29.3
				V27h2.3v2.3H-768.3z M-768.3,29.3V27h2.3v2.3H-768.3z M-772.9,29.3V27h2.3v2.3L-772.9,29.3z M-768.3,29.3V27h2.3v2.3H-768.3z
				 M-768.3,29.3V27h2.3v2.3H-768.3z M-772.9,29.3V27h2.3v2.3L-772.9,29.3z M-768.3,29.3V27h2.3v2.3H-768.3z M-768.3,29.3V27h2.3
				v2.3H-768.3z M-768.3,29.3V27h2.3v2.3H-768.3z M-768.3,29.3V27h2.3v2.3H-768.3z M-763.6,29.3V27h2.3v2.3H-763.6z M-763.6,29.3V27
				h2.3v2.3H-763.6z M-763.6,29.3V27h2.3v2.3H-763.6z M-763.6,29.3V27h2.3v2.3H-763.6z M-763.6,29.3V27h2.3v2.3H-763.6z
				 M-763.6,29.3V27h2.3v2.3H-763.6z M-763.6,29.3V27h2.3v2.3H-763.6z M-763.6,29.3V27h2.3v2.3H-763.6z M-763.6,29.3V27h2.3v2.3
				H-763.6z M-763.6,29.3V27h2.3v2.3H-763.6z M-763.6,29.3V27h2.3v2.3H-763.6z M-759,29.3V27h2.3v2.3H-759z M-759,29.3V27h2.3v2.3
				H-759z M-763.6,29.3V27h2.3v2.3H-763.6z M-759,29.3V27h2.3v2.3H-759z M-759,29.3V27h2.3v2.3H-759z M-763.6,29.3V27h2.3v2.3
				H-763.6z M-759,29.3V27h2.3v2.3H-759z M-759,29.3V27h2.3v2.3H-759z M-759,29.3V27h2.3v2.3H-759z M-759,29.3V27h2.3v2.3H-759z
				 M-759,29.3V27h2.3v2.3H-759z M-759,29.3V27h2.3v2.3H-759z M-759,29.3V27h2.3v2.3H-759z M-759,29.3V27h2.3v2.3H-759z M-759,29.3
				V27h2.3v2.3H-759z M-759,29.3V27h2.3v2.3H-759z M-759,29.3V27h2.3v2.3H-759z M-759,29.3V27h2.3v2.3H-759z M-759,29.3V27h2.3v2.3
				H-759z M-759,29.3V27h2.3v2.3H-759z M-754.3,29.3V27h2.3v2.3L-754.3,29.3z M-754.3,29.3V27h2.3v2.3L-754.3,29.3z M-759,29.3V27
				h2.3v2.3H-759z M-754.3,29.3V27h2.3v2.3L-754.3,29.3z M-754.3,29.3V27h2.3v2.3L-754.3,29.3z M-759,29.3V27h2.3v2.3H-759z
				 M-754.3,29.3V27h2.3v2.3L-754.3,29.3z M-754.3,29.3V27h2.3v2.3L-754.3,29.3z M-754.3,29.3V27h2.3v2.3L-754.3,29.3z M-754.3,29.3
				V27h2.3v2.3L-754.3,29.3z M-749.7,29.3V27l2.3,0v2.3H-749.7z"/>
		</g>
		<g>
			<path d="M-814.8,102.9v-2.3h2.3v2.3H-814.8z M-810.1,102.9v-2.3l2.3,0v2.3H-810.1z M-805.5,102.9v-2.3h2.3v2.3H-805.5z
				 M-800.8,102.9v-2.3h2.3v2.3H-800.8z M-824.1,102.9v-2.3h2.3v2.3H-824.1z M-819.4,102.9v-2.3h2.3v2.3H-819.4z M-814.8,102.9v-2.3
				h2.3v2.3H-814.8z M-810.1,102.9v-2.3l2.3,0v2.3H-810.1z M-796.2,102.9v-2.3h2.3v2.3L-796.2,102.9z M-796.2,102.9v-2.3h2.3v2.3
				L-796.2,102.9z M-791.5,102.9v-2.3h2.3v2.3H-791.5z M-791.5,102.9v-2.3h2.3v2.3H-791.5z M-796.2,102.9v-2.3h2.3v2.3L-796.2,102.9
				z M-791.5,102.9v-2.3h2.3v2.3H-791.5z M-791.5,102.9v-2.3h2.3v2.3H-791.5z M-796.2,102.9v-2.3h2.3v2.3L-796.2,102.9z
				 M-791.5,102.9v-2.3h2.3v2.3H-791.5z M-791.5,102.9v-2.3h2.3v2.3H-791.5z M-791.5,102.9v-2.3h2.3v2.3H-791.5z M-791.5,102.9v-2.3
				h2.3v2.3H-791.5z M-791.5,102.9v-2.3h2.3v2.3H-791.5z M-786.9,102.9v-2.3h2.3v2.3H-786.9z M-782.2,102.9v-2.3h2.3v2.3H-782.2z
				 M-782.2,102.9v-2.3h2.3v2.3H-782.2z M-777.6,102.9v-2.3h2.3v2.3H-777.6z M-777.6,102.9v-2.3h2.3v2.3H-777.6z M-782.2,102.9v-2.3
				h2.3v2.3H-782.2z M-777.6,102.9v-2.3h2.3v2.3H-777.6z M-777.6,102.9v-2.3h2.3v2.3H-777.6z M-782.2,102.9v-2.3h2.3v2.3H-782.2z
				 M-777.6,102.9v-2.3h2.3v2.3H-777.6z M-777.6,102.9v-2.3h2.3v2.3H-777.6z M-777.6,102.9v-2.3h2.3v2.3H-777.6z M-777.6,102.9v-2.3
				h2.3v2.3H-777.6z M-777.6,102.9v-2.3h2.3v2.3H-777.6z M-777.6,102.9v-2.3h2.3v2.3H-777.6z M-772.9,102.9v-2.3h2.3v2.3H-772.9z
				 M-772.9,102.9v-2.3h2.3v2.3H-772.9z M-777.6,102.9v-2.3h2.3v2.3H-777.6z M-772.9,102.9v-2.3h2.3v2.3H-772.9z M-772.9,102.9v-2.3
				h2.3v2.3H-772.9z M-777.6,102.9v-2.3h2.3v2.3H-777.6z M-772.9,102.9v-2.3h2.3v2.3H-772.9z M-772.9,102.9v-2.3h2.3v2.3H-772.9z
				 M-772.9,102.9v-2.3h2.3v2.3H-772.9z M-772.9,102.9v-2.3h2.3v2.3H-772.9z M-772.9,102.9v-2.3h2.3v2.3H-772.9z M-772.9,102.9v-2.3
				h2.3v2.3H-772.9z M-772.9,102.9v-2.3h2.3v2.3H-772.9z M-772.9,102.9v-2.3h2.3v2.3H-772.9z M-772.9,102.9v-2.3h2.3v2.3H-772.9z
				 M-772.9,102.9v-2.3h2.3v2.3H-772.9z M-772.9,102.9v-2.3h2.3v2.3H-772.9z M-772.9,102.9v-2.3h2.3v2.3H-772.9z M-772.9,102.9v-2.3
				h2.3v2.3H-772.9z M-772.9,102.9v-2.3h2.3v2.3H-772.9z M-768.3,102.9v-2.3h2.3v2.3H-768.3z M-768.3,102.9v-2.3h2.3v2.3H-768.3z
				 M-772.9,102.9v-2.3h2.3v2.3H-772.9z M-768.3,102.9v-2.3h2.3v2.3H-768.3z M-768.3,102.9v-2.3h2.3v2.3H-768.3z M-772.9,102.9v-2.3
				h2.3v2.3H-772.9z M-768.3,102.9v-2.3h2.3v2.3H-768.3z M-768.3,102.9v-2.3h2.3v2.3H-768.3z M-768.3,102.9v-2.3h2.3v2.3H-768.3z
				 M-768.3,102.9v-2.3h2.3v2.3H-768.3z M-763.6,102.9v-2.3h2.3v2.3H-763.6z M-763.6,102.9v-2.3h2.3v2.3H-763.6z M-763.6,102.9v-2.3
				h2.3v2.3H-763.6z M-763.6,102.9v-2.3h2.3v2.3H-763.6z M-763.6,102.9v-2.3h2.3v2.3H-763.6z M-763.6,102.9v-2.3h2.3v2.3H-763.6z
				 M-763.6,102.9v-2.3h2.3v2.3H-763.6z M-763.6,102.9v-2.3h2.3v2.3H-763.6z M-763.6,102.9v-2.3h2.3v2.3H-763.6z M-763.6,102.9v-2.3
				h2.3v2.3H-763.6z M-763.6,102.9v-2.3h2.3v2.3H-763.6z M-759,102.9v-2.3h2.3v2.3H-759z M-759,102.9v-2.3h2.3v2.3H-759z
				 M-763.6,102.9v-2.3h2.3v2.3H-763.6z M-759,102.9v-2.3h2.3v2.3H-759z M-759,102.9v-2.3h2.3v2.3H-759z M-763.6,102.9v-2.3h2.3v2.3
				H-763.6z M-759,102.9v-2.3h2.3v2.3H-759z M-759,102.9v-2.3h2.3v2.3H-759z M-759,102.9v-2.3h2.3v2.3H-759z M-759,102.9v-2.3h2.3
				v2.3H-759z M-759,102.9v-2.3h2.3v2.3H-759z M-759,102.9v-2.3h2.3v2.3H-759z M-759,102.9v-2.3h2.3v2.3H-759z M-759,102.9v-2.3h2.3
				v2.3H-759z M-759,102.9v-2.3h2.3v2.3H-759z M-759,102.9v-2.3h2.3v2.3H-759z M-759,102.9v-2.3h2.3v2.3H-759z M-759,102.9v-2.3h2.3
				v2.3H-759z M-759,102.9v-2.3h2.3v2.3H-759z M-759,102.9v-2.3h2.3v2.3H-759z M-754.3,102.9v-2.3h2.3v2.3H-754.3z M-754.3,102.9
				v-2.3h2.3v2.3H-754.3z M-759,102.9v-2.3h2.3v2.3H-759z M-754.3,102.9v-2.3h2.3v2.3H-754.3z M-754.3,102.9v-2.3h2.3v2.3H-754.3z
				 M-759,102.9v-2.3h2.3v2.3H-759z M-754.3,102.9v-2.3h2.3v2.3H-754.3z M-754.3,102.9v-2.3h2.3v2.3H-754.3z M-754.3,102.9v-2.3h2.3
				v2.3H-754.3z M-754.3,102.9v-2.3h2.3v2.3H-754.3z M-749.7,102.9v-2.3h2.3v2.3H-749.7z"/>
		</g>
	</g>
	<g>
		<text transform="matrix(1 0 0 1 332.8081 207.831)" style="font-family:'Gilroy-Bold'; font-size:48.8271px;">Наклон</text>
		<text transform="matrix(1 0 0 1 349.3638 257.4999)" style="font-family:'Gilroy-Regular'; font-size:30.2263px;">+5° ~ -10°</text>
		<g>
			<g>
				<path d="M427.9,64.8c0,0,0,0.1,0,0.1c0,16.1-6.3,31.3-16.7,40.6l-1.5-1.7c9.9-8.9,15.9-23.4,15.9-38.8c0,0,0-0.1,0-0.1
					c0-15.5-5.8-29.5-15.9-38.6l1.6-1.7C421.8,33.9,427.9,48.6,427.9,64.8z"/>
				<g>
					<polygon points="413.4,106.6 406.5,107.7 409,101.2 					"/>
				</g>
				<g>
					<polygon points="413.3,23.3 406.5,22.1 408.9,28.6 					"/>
				</g>
			</g>
			<g>
				<path d="M478,127.2H323.5c-5.4,0-9.8-4.4-9.8-9.8c0-0.2,0-0.5,0.1-0.7l21-105c0.2-5.2,4.5-9.4,9.8-9.4h154.5
					c5.4,0,9.8,4.4,9.8,9.8c0,0.2,0,0.5-0.1,0.7l-21,105C487.6,123.1,483.3,127.2,478,127.2z M320.7,117.7c0.1,1.4,1.3,2.5,2.8,2.5
					H478c1.5,0,2.8-1.3,2.8-2.8c0-0.2,0-0.5,0.1-0.7l21-104.9c-0.1-1.4-1.3-2.5-2.8-2.5H344.6c-1.5,0-2.8,1.3-2.8,2.8
					c0,0.2,0,0.5-0.1,0.7L320.7,117.7z"/>
			</g>
			<path d="M499.1,124.9h-0.6v-2.3h0.6c0.5,0,1-0.1,1.4-0.2l0.6,2.2C500.5,124.8,499.8,124.9,499.1,124.9z M496.2,124.9h-2.3v-2.3
				h2.3V124.9z M491.6,124.9h-2.3v-2.3h2.3V124.9z M486.9,124.9h-2.3v-2.3h2.3V124.9z M482.3,124.9h-2.3v-2.3h2.3V124.9z
				 M477.6,124.9h-2.3v-2.3h2.3V124.9z M473,124.9h-2.3v-2.3h2.3V124.9z M468.3,124.9H466v-2.3h2.3V124.9z M463.7,124.9h-2.3v-2.3
				h2.3V124.9z M459,124.9h-2.3v-2.3h2.3V124.9z M454.4,124.9H452v-2.3h2.3V124.9z M449.7,124.9h-2.3v-2.3h2.3V124.9z M445.1,124.9
				h-2.3v-2.3h2.3V124.9z M440.4,124.9h-2.3v-2.3h2.3V124.9z M435.8,124.9h-2.3v-2.3h2.3V124.9z M431.1,124.9h-2.3v-2.3h2.3V124.9z
				 M426.5,124.9h-2.3v-2.3h2.3V124.9z M421.8,124.9h-2.3v-2.3h2.3V124.9z M417.2,124.9h-2.3v-2.3h2.3V124.9z M412.5,124.9h-2.3
				v-2.3h2.3V124.9z M407.9,124.9h-2.3v-2.3h2.3V124.9z M403.2,124.9h-2.3v-2.3h2.3V124.9z M398.6,124.9h-2.3v-2.3h2.3V124.9z
				 M393.9,124.9h-2.3v-2.3h2.3V124.9z M389.3,124.9H387v-2.3h2.3V124.9z M384.6,124.9h-2.3v-2.3h2.3V124.9z M380,124.9h-2.3v-2.3
				h2.3V124.9z M375.3,124.9H373v-2.3h2.3V124.9z M370.7,124.9h-2.3v-2.3h2.3V124.9z M366,124.9h-2.3v-2.3h2.3V124.9z M361.4,124.9
				h-2.3v-2.3h2.3V124.9z M356.7,124.9h-2.3v-2.3h2.3V124.9z M352.1,124.9h-2.3v-2.3h2.3V124.9z M347.4,124.9h-2.3v-2.3h2.3V124.9z
				 M342.5,124.6c-0.9-0.3-1.7-0.7-2.5-1.2l1.4-1.9c0.5,0.4,1.1,0.7,1.7,0.8L342.5,124.6z M503.6,123.4l-1.4-1.9
				c0.5-0.4,0.9-0.9,1.3-1.4l2,1.2C505,122.1,504.3,122.8,503.6,123.4z M338.2,121.4c-0.5-0.8-0.8-1.7-1-2.6l2.3-0.4
				c0.1,0.6,0.3,1.2,0.7,1.8L338.2,121.4z M506.4,118.8l-2.3-0.4c0.1-0.3,0.1-0.6,0.1-0.9l-0.2-0.9l2.3-0.5l0.2,1.2
				C506.6,117.9,506.5,118.4,506.4,118.8z M336.9,116.5l-0.5-2.3l2.3-0.5l0.5,2.3L336.9,116.5z M503.6,114.2l-0.5-2.3l2.3-0.5
				l0.5,2.3L503.6,114.2z M336,112l-0.5-2.3l2.3-0.5l0.5,2.3L336,112z M502.7,109.7l-0.5-2.3l2.3-0.5l0.5,2.3L502.7,109.7z
				 M335.1,107.4l-0.5-2.3l2.3-0.5l0.5,2.3L335.1,107.4z M501.7,105.1l-0.5-2.3l2.3-0.5l0.5,2.3L501.7,105.1z M334.1,102.9l-0.5-2.3
				l2.3-0.5l0.5,2.3L334.1,102.9z M500.8,100.6l-0.5-2.3l2.3-0.5l0.5,2.3L500.8,100.6z M333.2,98.3l-0.5-2.3l2.3-0.5l0.5,2.3
				L333.2,98.3z M499.9,96l-0.5-2.3l2.3-0.5l0.5,2.3L499.9,96z M332.3,93.7l-0.5-2.3l2.3-0.5l0.5,2.3L332.3,93.7z M499,91.4
				l-0.5-2.3l2.3-0.5l0.5,2.3L499,91.4z M331.4,89.2l-0.5-2.3l2.3-0.5l0.5,2.3L331.4,89.2z M498.1,86.9l-0.5-2.3l2.3-0.5l0.5,2.3
				L498.1,86.9z M330.5,84.6l-0.5-2.3l2.3-0.5l0.5,2.3L330.5,84.6z M497.2,82.3l-0.5-2.3l2.3-0.5l0.5,2.3L497.2,82.3z M329.6,80.1
				l-0.5-2.3l2.3-0.5l0.5,2.3L329.6,80.1z M496.3,77.8l-0.5-2.3l2.3-0.5l0.5,2.3L496.3,77.8z M328.7,75.5l-0.5-2.3l2.3-0.5L331,75
				L328.7,75.5z M495.4,73.2l-0.5-2.3l2.3-0.5l0.5,2.3L495.4,73.2z M327.8,70.9l-0.5-2.3l2.3-0.5l0.5,2.3L327.8,70.9z M494.4,68.6
				l-0.5-2.3l2.3-0.5l0.5,2.3L494.4,68.6z M326.9,66.4l-0.5-2.3l2.3-0.5l0.5,2.3L326.9,66.4z M325.9,61.8l-0.5-2.3l2.3-0.5l0.5,2.3
				L325.9,61.8z M325,57.3l-0.5-2.3l2.3-0.5l0.5,2.3L325,57.3z M324.1,52.7l-0.5-2.3l2.3-0.5l0.5,2.3L324.1,52.7z M323.2,48.1
				l-0.5-2.3l2.3-0.5l0.5,2.3L323.2,48.1z M322.3,43.6l-0.5-2.3l2.3-0.5l0.5,2.3L322.3,43.6z M321.4,39l-0.5-2.3l2.3-0.5l0.5,2.3
				L321.4,39z M320.5,34.5l-0.5-2.3l2.3-0.5l0.5,2.3L320.5,34.5z M319.6,29.9l-0.5-2.3l2.3-0.5l0.5,2.3L319.6,29.9z M318.7,25.3
				l-0.5-2.3l2.3-0.5l0.5,2.3L318.7,25.3z M317.7,20.8l-0.5-2.3l2.3-0.5l0.5,2.3L317.7,20.8z M316.8,16.2l-0.5-2.3l2.3-0.5l0.5,2.3
				L316.8,16.2z M318.4,11.5l-2.3-0.3c0.1-0.9,0.4-1.8,0.8-2.6l2.1,1.1C318.7,10.3,318.5,10.9,318.4,11.5z M320.1,8.3l-1.5-1.8
				c0.7-0.6,1.5-1.1,2.4-1.4l0.8,2.2C321.1,7.5,320.6,7.9,320.1,8.3z M344.6,7h-2.3V4.7h2.3V7z M339.9,7h-2.3V4.7h2.3V7z M335.3,7
				h-2.3V4.7h2.3V7z M330.6,7h-2.3V4.7h2.3V7z M326,7h-2.3V4.7h2.3V7z"/>
		</g>
	</g>
	<g>
		<text transform="matrix(1 0 0 1 -149.0093 207.831)" style="font-family:'Gilroy-Bold'; font-size:48.8271px;">Вылет от стены</text>
		<text transform="matrix(1 0 0 1 -26.6118 257.4999)" style="font-family:'Gilroy-Regular'; font-size:30.2263px;">8.5 см</text>
		<g>
			<g>
				<path d="M18.9,126.4c-1.9,0-3.4-1.5-3.4-3.4V6.6c0-1.9,1.5-3.4,3.4-3.4c1.9,0,3.4,1.5,3.4,3.4V123
					C22.4,124.9,20.8,126.4,18.9,126.4z"/>
				<path d="M18.9,127.2c-2.3,0-4.3-1.9-4.3-4.3V6.6c0-2.3,1.9-4.3,4.3-4.3s4.3,1.9,4.3,4.3V123C23.2,125.3,21.3,127.2,18.9,127.2z
					 M18.9,3.9c-1.4,0-2.6,1.2-2.6,2.6V123c0,1.5,1.2,2.6,2.6,2.6c1.4,0,2.6-1.2,2.6-2.6V6.6C21.6,5.1,20.4,3.9,18.9,3.9z"/>
			</g>
			<g>
				<path d="M12.5,78.2c-1.7,0-3-1.3-3-3V54.3c0-1.7,1.3-3,3-3s3,1.3,3,3v20.9C15.5,76.9,14.1,78.2,12.5,78.2z"/>
				<path d="M12.5,79c-2.1,0-3.8-1.7-3.8-3.8V54.3c0-2.1,1.7-3.8,3.8-3.8s3.8,1.7,3.8,3.8v20.9C16.3,77.3,14.6,79,12.5,79z
					 M12.5,52.2c-1.2,0-2.2,1-2.2,2.2v20.9c0,1.2,1,2.2,2.2,2.2s2.2-1,2.2-2.2V54.3C14.7,53.1,13.7,52.2,12.5,52.2z"/>
			</g>
			<g>
				<path d="M4.4,86.7c-1.9,0-3.4-1.5-3.4-3.4V44.6c0-1.9,1.5-3.4,3.4-3.4s3.4,1.5,3.4,3.4v38.7C7.9,85.2,6.3,86.7,4.4,86.7z"/>
				<path d="M4.4,87.5c-2.3,0-4.3-1.9-4.3-4.3V44.6c0-2.3,1.9-4.3,4.3-4.3s4.3,1.9,4.3,4.3v38.7C8.7,85.6,6.8,87.5,4.4,87.5z
					 M4.4,41.9c-1.5,0-2.6,1.2-2.6,2.6v38.7c0,1.5,1.2,2.6,2.6,2.6c1.4,0,2.6-1.2,2.6-2.6V44.6C7.1,43.1,5.9,41.9,4.4,41.9z"/>
			</g>
			<g>
				<line x1="1.1" y1="113" x2="1.1" y2="15"/>
				<path d="M1.1,113.9c-0.5,0-1-0.4-1-1V15c0-0.5,0.4-1,1-1s1,0.4,1,1v98C2,113.5,1.6,113.9,1.1,113.9z"/>
			</g>
		</g>
	</g>
</g>
</svg>
