<?xml version="1.0" encoding="utf-8"?>
<!-- Generator: Adobe Illustrator 27.2.0, SVG Export Plug-In . SVG Version: 6.00 Build 0)  -->
<svg version="1.1" id="Слой_1" xmlns="http://www.w3.org/2000/svg" xmlns:xlink="http://www.w3.org/1999/xlink" x="0px" y="0px"
	 viewBox="0 0 195 128.5" style="enable-background:new 0 0 195 128.5;" xml:space="preserve">
<style type="text/css">
	.st0{fill:#1D1D1B;}
</style>
<g>
	<text transform="matrix(1 0 0 1 382.1626 207.1777)" style="font-family:'Gilroy-Bold'; font-size:48.8271px;">Диагональ</text>
	<text transform="matrix(1 0 0 1 436.4653 257.4999)"><tspan x="0" y="0" style="font-family:'Gilroy-Regular'; font-size:30.2263px;">60</tspan><tspan x="31" y="0" style="font-family:'Gilroy-Regular'; font-size:30.2263px;">&quot;</tspan><tspan x="41.8" y="0" style="font-family:'Gilroy-Regular'; font-size:30.2263px;">–</tspan><tspan x="56.9" y="0" style="font-family:'Gilroy-Regular'; font-size:30.2263px; letter-spacing:-2;"> </tspan><tspan x="60.9" y="0" style="font-family:'Gilroy-Regular'; font-size:30.2263px;">110&quot;</tspan></text>
	<g>
		<g>
			<rect x="405" y="64.9" transform="matrix(0.8654 -0.5011 0.5011 0.8654 33.2047 255.8361)" width="175.7" height="2.3"/>
			<g>
				<polygon points="419.4,112.6 412.5,112.6 415.9,106.6 				"/>
			</g>
			<g>
				<polygon points="569.7,25.6 573.2,19.6 566.2,19.6 				"/>
			</g>
		</g>
		<path d="M581.8,127.2H408.7c-5.4,0-9.8-4.4-9.8-9.8V12.1c0-5.4,4.4-9.8,9.8-9.8h173.2c5.4,0,9.8,4.4,9.8,9.8v105.3
			C591.6,122.8,587.2,127.2,581.8,127.2z M408.7,9.3c-1.5,0-2.8,1.3-2.8,2.8v105.3c0,1.5,1.3,2.8,2.8,2.8h173.2
			c1.5,0,2.8-1.3,2.8-2.8V12.1c0-1.5-1.3-2.8-2.8-2.8H408.7z"/>
	</g>
	<text transform="matrix(1 0 0 1 -1152.6396 207.1777)" style="font-family:'Gilroy-Bold'; font-size:48.8271px;">VESA</text>
	<text transform="matrix(1 0 0 1 -1218.1045 257.4999)" style="font-family:'Gilroy-Regular'; font-size:30.2263px;">200x200 - 900x600</text>
	<text transform="matrix(1 0 0 1 -798.4453 207.831)" style="font-family:'Gilroy-Bold'; font-size:48.8271px;">Нагрузка</text>
	<text transform="matrix(1 0 0 1 -741.5088 257.4999)" style="font-family:'Gilroy-Regular'; font-size:30.2263px;">120 кг</text>
	<g>
		<path d="M-649.8,127.2h-105.4c-3.9,0-7.1-3.2-7.1-7.1V38.8c0-3.9,3.2-7.1,7.1-7.1h32.5l0.1-7l-10.8-0.1c-3.9,0-7.1-3.2-7.1-7.1
			V6.7c0-3.9,3.2-7.1,7.1-7.1h61.9c3.9,0,7.1,3.2,7.1,7.1v10.7c0,3.9-3.2,7.1-7.1,7.1h-10.7l-0.1,7c0,0.1,0.1,0.1,0.1,0.1h32.5
			c3.9,0,7.1,3.2,7.1,7.1v81.4C-642.7,124-645.8,127.2-649.8,127.2z M-755.2,38.7l-0.1,81.5l105.5,0.1l0.1-81.5l-32.6-0.1
			c-3.9,0-7.1-3.2-7.1-7.1v-6.9c0-3.9,3.2-7.1,7.1-7.1h10.7l0.1-10.8l-14.4-0.1h-47.5l-0.1,10.8l10.8,0.1c3.9,0,7.1,3.2,7.1,7.1v6.9
			c0,3.9-3.2,7.1-7.1,7.1H-755.2z"/>
		<text transform="matrix(1 0 0 1 -723.3433 91.4824)" style="fill:none; font-family:'Gilroy-Bold'; font-size:49.433px;">кг</text>
	</g>
	<g>
		<path class="st0" d="M-1013.7,127.2h-173.2c-5.4,0-9.8-4.4-9.8-9.8V12.1c0-5.4,4.4-9.8,9.8-9.8h173.2c5.4,0,9.8,4.4,9.8,9.8v105.3
			C-1003.9,122.8-1008.3,127.2-1013.7,127.2z M-1186.9,9.3c-1.5,0-2.8,1.3-2.8,2.8v105.3c0,1.5,1.3,2.8,2.8,2.8h173.2
			c1.5,0,2.8-1.3,2.8-2.8V12.1c0-1.5-1.3-2.8-2.8-2.8H-1186.9z"/>
		<circle cx="-1145.3" cy="28.2" r="3.5"/>
		<circle cx="-1145.3" cy="101.7" r="3.5"/>
		<circle cx="-1054.9" cy="101.7" r="3.5"/>
		<circle cx="-1054.9" cy="28.2" r="3.5"/>
		<g>
			<path d="M-1053.7,82.7h-2.3v-2.3h2.3V82.7z M-1053.7,78.1h-2.3v-2.3h2.3V78.1z M-1053.7,73.4h-2.3v-2.3h2.3V73.4z M-1053.7,68.8
				h-2.3v-2.3h2.3V68.8z M-1053.7,96.7h-2.3v-2.3h2.3V96.7z M-1053.7,92h-2.3v-2.3h2.3V92z M-1053.7,87.4h-2.3v-2.3h2.3V87.4z
				 M-1053.7,82.7h-2.3v-2.3h2.3V82.7z M-1053.7,64.1h-2.3v-2.3h2.3V64.1z M-1053.7,64.1h-2.3v-2.3h2.3V64.1z M-1053.7,59.5h-2.3
				v-2.3h2.3V59.5z M-1053.7,59.5h-2.3v-2.3h2.3V59.5z M-1053.7,64.1h-2.3v-2.3h2.3V64.1z M-1053.7,59.5h-2.3v-2.3h2.3V59.5z
				 M-1053.7,59.5h-2.3v-2.3h2.3V59.5z M-1053.7,64.1h-2.3v-2.3h2.3V64.1z M-1053.7,59.5h-2.3v-2.3h2.3V59.5z M-1053.7,59.5h-2.3
				v-2.3h2.3V59.5z M-1053.7,59.5h-2.3v-2.3h2.3V59.5z M-1053.7,59.5h-2.3v-2.3h2.3V59.5z M-1053.7,54.8h-2.3v-2.3h2.3V54.8z
				 M-1053.7,50.2h-2.3v-2.3h2.3V50.2z M-1053.7,50.2h-2.3v-2.3h2.3V50.2z M-1053.7,50.2h-2.3v-2.3h2.3V50.2z M-1053.7,50.2h-2.3
				v-2.3h2.3V50.2z M-1053.7,50.2h-2.3v-2.3h2.3V50.2z M-1053.7,50.2h-2.3v-2.3h2.3V50.2z M-1053.7,50.2h-2.3v-2.3h2.3V50.2z
				 M-1053.7,50.2h-2.3v-2.3h2.3V50.2z M-1053.7,50.2h-2.3v-2.3h2.3V50.2z M-1053.7,45.5h-2.3v-2.3h2.3V45.5z M-1053.7,40.9h-2.3
				v-2.3h2.3V40.9z M-1053.7,40.9h-2.3v-2.3h2.3V40.9z M-1053.7,36.2h-2.3v-2.3h2.3V36.2z"/>
		</g>
		<g>
			<path d="M-1144.1,82.7h-2.3v-2.3h2.3V82.7z M-1144.1,78.1h-2.3v-2.3h2.3V78.1z M-1144.1,73.4h-2.3v-2.3h2.3V73.4z M-1144.1,68.8
				h-2.3v-2.3h2.3V68.8z M-1144.1,96.7h-2.3v-2.3h2.3V96.7z M-1144.1,92h-2.3v-2.3h2.3V92z M-1144.1,87.4h-2.3v-2.3h2.3V87.4z
				 M-1144.1,82.7h-2.3v-2.3h2.3V82.7z M-1144.1,64.1h-2.3v-2.3h2.3V64.1z M-1144.1,64.1h-2.3v-2.3h2.3V64.1z M-1144.1,59.5h-2.3
				v-2.3h2.3V59.5z M-1144.1,59.5h-2.3v-2.3h2.3V59.5z M-1144.1,64.1h-2.3v-2.3h2.3V64.1z M-1144.1,59.5h-2.3v-2.3h2.3V59.5z
				 M-1144.1,59.5h-2.3v-2.3h2.3V59.5z M-1144.1,64.1h-2.3v-2.3h2.3V64.1z M-1144.1,59.5h-2.3v-2.3h2.3V59.5z M-1144.1,59.5h-2.3
				v-2.3h2.3V59.5z M-1144.1,59.5h-2.3v-2.3h2.3V59.5z M-1144.1,59.5h-2.3v-2.3h2.3V59.5z M-1144.1,54.8h-2.3v-2.3h2.3V54.8z
				 M-1144.1,50.2h-2.3v-2.3h2.3V50.2z M-1144.1,50.2h-2.3v-2.3h2.3V50.2z M-1144.1,50.2h-2.3v-2.3h2.3V50.2z M-1144.1,50.2h-2.3
				v-2.3h2.3V50.2z M-1144.1,50.2h-2.3v-2.3h2.3V50.2z M-1144.1,50.2h-2.3v-2.3h2.3V50.2z M-1144.1,50.2h-2.3v-2.3h2.3V50.2z
				 M-1144.1,50.2h-2.3v-2.3h2.3V50.2z M-1144.1,50.2h-2.3v-2.3h2.3V50.2z M-1144.1,45.5h-2.3v-2.3h2.3V45.5z M-1144.1,40.9h-2.3
				v-2.3h2.3V40.9z M-1144.1,40.9h-2.3v-2.3h2.3V40.9z M-1144.1,36.2h-2.3v-2.3h2.3V36.2z"/>
		</g>
		<g>
			<path d="M-1128.8,29.3V27h2.3v2.3H-1128.8z M-1124.1,29.3V27l2.3,0v2.3H-1124.1z M-1119.5,29.3V27h2.3v2.3H-1119.5z
				 M-1114.8,29.3V27h2.3v2.3H-1114.8z M-1138.1,29.3V27h2.3v2.3H-1138.1z M-1133.4,29.3V27h2.3v2.3L-1133.4,29.3z M-1128.8,29.3V27
				h2.3v2.3H-1128.8z M-1124.1,29.3V27l2.3,0v2.3H-1124.1z M-1110.2,29.3V27h2.3v2.3L-1110.2,29.3z M-1110.2,29.3V27h2.3v2.3
				L-1110.2,29.3z M-1105.5,29.3V27h2.3v2.3H-1105.5z M-1105.5,29.3V27h2.3v2.3H-1105.5z M-1110.2,29.3V27h2.3v2.3L-1110.2,29.3z
				 M-1105.5,29.3V27h2.3v2.3H-1105.5z M-1105.5,29.3V27h2.3v2.3H-1105.5z M-1110.2,29.3V27h2.3v2.3L-1110.2,29.3z M-1105.5,29.3V27
				h2.3v2.3H-1105.5z M-1105.5,29.3V27h2.3v2.3H-1105.5z M-1105.5,29.3V27h2.3v2.3H-1105.5z M-1105.5,29.3V27h2.3v2.3H-1105.5z
				 M-1105.5,29.3V27h2.3v2.3H-1105.5z M-1100.9,29.3V27l2.3,0v2.3H-1100.9z M-1096.2,29.3V27h2.3v2.3H-1096.2z M-1096.2,29.3V27
				h2.3v2.3H-1096.2z M-1091.6,29.3V27h2.3v2.3H-1091.6z M-1091.6,29.3V27h2.3v2.3H-1091.6z M-1096.2,29.3V27h2.3v2.3H-1096.2z
				 M-1091.6,29.3V27h2.3v2.3H-1091.6z M-1091.6,29.3V27h2.3v2.3H-1091.6z M-1096.2,29.3V27h2.3v2.3H-1096.2z M-1091.6,29.3V27h2.3
				v2.3H-1091.6z M-1091.6,29.3V27h2.3v2.3H-1091.6z M-1091.6,29.3V27h2.3v2.3H-1091.6z M-1091.6,29.3V27h2.3v2.3H-1091.6z
				 M-1091.6,29.3V27h2.3v2.3H-1091.6z M-1091.6,29.3V27h2.3v2.3H-1091.6z M-1086.9,29.3V27h2.3v2.3L-1086.9,29.3z M-1086.9,29.3V27
				h2.3v2.3L-1086.9,29.3z M-1091.6,29.3V27h2.3v2.3H-1091.6z M-1086.9,29.3V27h2.3v2.3L-1086.9,29.3z M-1086.9,29.3V27h2.3v2.3
				L-1086.9,29.3z M-1091.6,29.3V27h2.3v2.3H-1091.6z M-1086.9,29.3V27h2.3v2.3L-1086.9,29.3z M-1086.9,29.3V27h2.3v2.3
				L-1086.9,29.3z M-1086.9,29.3V27h2.3v2.3L-1086.9,29.3z M-1086.9,29.3V27h2.3v2.3L-1086.9,29.3z M-1086.9,29.3V27h2.3v2.3
				L-1086.9,29.3z M-1086.9,29.3V27h2.3v2.3L-1086.9,29.3z M-1086.9,29.3V27h2.3v2.3L-1086.9,29.3z M-1086.9,29.3V27h2.3v2.3
				L-1086.9,29.3z M-1086.9,29.3V27h2.3v2.3L-1086.9,29.3z M-1086.9,29.3V27h2.3v2.3L-1086.9,29.3z M-1086.9,29.3V27h2.3v2.3
				L-1086.9,29.3z M-1086.9,29.3V27h2.3v2.3L-1086.9,29.3z M-1086.9,29.3V27h2.3v2.3L-1086.9,29.3z M-1086.9,29.3V27h2.3v2.3
				L-1086.9,29.3z M-1082.3,29.3V27h2.3v2.3H-1082.3z M-1082.3,29.3V27h2.3v2.3H-1082.3z M-1086.9,29.3V27h2.3v2.3L-1086.9,29.3z
				 M-1082.3,29.3V27h2.3v2.3H-1082.3z M-1082.3,29.3V27h2.3v2.3H-1082.3z M-1086.9,29.3V27h2.3v2.3L-1086.9,29.3z M-1082.3,29.3V27
				h2.3v2.3H-1082.3z M-1082.3,29.3V27h2.3v2.3H-1082.3z M-1082.3,29.3V27h2.3v2.3H-1082.3z M-1082.3,29.3V27h2.3v2.3H-1082.3z
				 M-1077.6,29.3V27h2.3v2.3H-1077.6z M-1077.6,29.3V27h2.3v2.3H-1077.6z M-1077.6,29.3V27h2.3v2.3H-1077.6z M-1077.6,29.3V27h2.3
				v2.3H-1077.6z M-1077.6,29.3V27h2.3v2.3H-1077.6z M-1077.6,29.3V27h2.3v2.3H-1077.6z M-1077.6,29.3V27h2.3v2.3H-1077.6z
				 M-1077.6,29.3V27h2.3v2.3H-1077.6z M-1077.6,29.3V27h2.3v2.3H-1077.6z M-1077.6,29.3V27h2.3v2.3H-1077.6z M-1077.6,29.3V27h2.3
				v2.3H-1077.6z M-1073,29.3V27h2.3v2.3H-1073z M-1073,29.3V27h2.3v2.3H-1073z M-1077.6,29.3V27h2.3v2.3H-1077.6z M-1073,29.3V27
				h2.3v2.3H-1073z M-1073,29.3V27h2.3v2.3H-1073z M-1077.6,29.3V27h2.3v2.3H-1077.6z M-1073,29.3V27h2.3v2.3H-1073z M-1073,29.3V27
				h2.3v2.3H-1073z M-1073,29.3V27h2.3v2.3H-1073z M-1073,29.3V27h2.3v2.3H-1073z M-1073,29.3V27h2.3v2.3H-1073z M-1073,29.3V27h2.3
				v2.3H-1073z M-1073,29.3V27h2.3v2.3H-1073z M-1073,29.3V27h2.3v2.3H-1073z M-1073,29.3V27h2.3v2.3H-1073z M-1073,29.3V27h2.3v2.3
				H-1073z M-1073,29.3V27h2.3v2.3H-1073z M-1073,29.3V27h2.3v2.3H-1073z M-1073,29.3V27h2.3v2.3H-1073z M-1073,29.3V27h2.3v2.3
				H-1073z M-1068.3,29.3V27h2.3v2.3L-1068.3,29.3z M-1068.3,29.3V27h2.3v2.3L-1068.3,29.3z M-1073,29.3V27h2.3v2.3H-1073z
				 M-1068.3,29.3V27h2.3v2.3L-1068.3,29.3z M-1068.3,29.3V27h2.3v2.3L-1068.3,29.3z M-1073,29.3V27h2.3v2.3H-1073z M-1068.3,29.3
				V27h2.3v2.3L-1068.3,29.3z M-1068.3,29.3V27h2.3v2.3L-1068.3,29.3z M-1068.3,29.3V27h2.3v2.3L-1068.3,29.3z M-1068.3,29.3V27h2.3
				v2.3L-1068.3,29.3z M-1063.7,29.3V27l2.3,0v2.3H-1063.7z"/>
		</g>
		<g>
			<path d="M-1128.8,102.9v-2.3h2.3v2.3H-1128.8z M-1124.1,102.9v-2.3l2.3,0v2.3H-1124.1z M-1119.5,102.9v-2.3h2.3v2.3H-1119.5z
				 M-1114.8,102.9v-2.3h2.3v2.3H-1114.8z M-1138.1,102.9v-2.3h2.3v2.3H-1138.1z M-1133.4,102.9v-2.3h2.3v2.3H-1133.4z
				 M-1128.8,102.9v-2.3h2.3v2.3H-1128.8z M-1124.1,102.9v-2.3l2.3,0v2.3H-1124.1z M-1110.2,102.9v-2.3h2.3v2.3L-1110.2,102.9z
				 M-1110.2,102.9v-2.3h2.3v2.3L-1110.2,102.9z M-1105.5,102.9v-2.3h2.3v2.3H-1105.5z M-1105.5,102.9v-2.3h2.3v2.3H-1105.5z
				 M-1110.2,102.9v-2.3h2.3v2.3L-1110.2,102.9z M-1105.5,102.9v-2.3h2.3v2.3H-1105.5z M-1105.5,102.9v-2.3h2.3v2.3H-1105.5z
				 M-1110.2,102.9v-2.3h2.3v2.3L-1110.2,102.9z M-1105.5,102.9v-2.3h2.3v2.3H-1105.5z M-1105.5,102.9v-2.3h2.3v2.3H-1105.5z
				 M-1105.5,102.9v-2.3h2.3v2.3H-1105.5z M-1105.5,102.9v-2.3h2.3v2.3H-1105.5z M-1105.5,102.9v-2.3h2.3v2.3H-1105.5z
				 M-1100.9,102.9v-2.3h2.3v2.3H-1100.9z M-1096.2,102.9v-2.3h2.3v2.3H-1096.2z M-1096.2,102.9v-2.3h2.3v2.3H-1096.2z
				 M-1091.6,102.9v-2.3h2.3v2.3H-1091.6z M-1091.6,102.9v-2.3h2.3v2.3H-1091.6z M-1096.2,102.9v-2.3h2.3v2.3H-1096.2z
				 M-1091.6,102.9v-2.3h2.3v2.3H-1091.6z M-1091.6,102.9v-2.3h2.3v2.3H-1091.6z M-1096.2,102.9v-2.3h2.3v2.3H-1096.2z
				 M-1091.6,102.9v-2.3h2.3v2.3H-1091.6z M-1091.6,102.9v-2.3h2.3v2.3H-1091.6z M-1091.6,102.9v-2.3h2.3v2.3H-1091.6z
				 M-1091.6,102.9v-2.3h2.3v2.3H-1091.6z M-1091.6,102.9v-2.3h2.3v2.3H-1091.6z M-1091.6,102.9v-2.3h2.3v2.3H-1091.6z
				 M-1086.9,102.9v-2.3h2.3v2.3H-1086.9z M-1086.9,102.9v-2.3h2.3v2.3H-1086.9z M-1091.6,102.9v-2.3h2.3v2.3H-1091.6z
				 M-1086.9,102.9v-2.3h2.3v2.3H-1086.9z M-1086.9,102.9v-2.3h2.3v2.3H-1086.9z M-1091.6,102.9v-2.3h2.3v2.3H-1091.6z
				 M-1086.9,102.9v-2.3h2.3v2.3H-1086.9z M-1086.9,102.9v-2.3h2.3v2.3H-1086.9z M-1086.9,102.9v-2.3h2.3v2.3H-1086.9z
				 M-1086.9,102.9v-2.3h2.3v2.3H-1086.9z M-1086.9,102.9v-2.3h2.3v2.3H-1086.9z M-1086.9,102.9v-2.3h2.3v2.3H-1086.9z
				 M-1086.9,102.9v-2.3h2.3v2.3H-1086.9z M-1086.9,102.9v-2.3h2.3v2.3H-1086.9z M-1086.9,102.9v-2.3h2.3v2.3H-1086.9z
				 M-1086.9,102.9v-2.3h2.3v2.3H-1086.9z M-1086.9,102.9v-2.3h2.3v2.3H-1086.9z M-1086.9,102.9v-2.3h2.3v2.3H-1086.9z
				 M-1086.9,102.9v-2.3h2.3v2.3H-1086.9z M-1086.9,102.9v-2.3h2.3v2.3H-1086.9z M-1082.3,102.9v-2.3h2.3v2.3H-1082.3z
				 M-1082.3,102.9v-2.3h2.3v2.3H-1082.3z M-1086.9,102.9v-2.3h2.3v2.3H-1086.9z M-1082.3,102.9v-2.3h2.3v2.3H-1082.3z
				 M-1082.3,102.9v-2.3h2.3v2.3H-1082.3z M-1086.9,102.9v-2.3h2.3v2.3H-1086.9z M-1082.3,102.9v-2.3h2.3v2.3H-1082.3z
				 M-1082.3,102.9v-2.3h2.3v2.3H-1082.3z M-1082.3,102.9v-2.3h2.3v2.3H-1082.3z M-1082.3,102.9v-2.3h2.3v2.3H-1082.3z
				 M-1077.6,102.9v-2.3h2.3v2.3H-1077.6z M-1077.6,102.9v-2.3h2.3v2.3H-1077.6z M-1077.6,102.9v-2.3h2.3v2.3H-1077.6z
				 M-1077.6,102.9v-2.3h2.3v2.3H-1077.6z M-1077.6,102.9v-2.3h2.3v2.3H-1077.6z M-1077.6,102.9v-2.3h2.3v2.3H-1077.6z
				 M-1077.6,102.9v-2.3h2.3v2.3H-1077.6z M-1077.6,102.9v-2.3h2.3v2.3H-1077.6z M-1077.6,102.9v-2.3h2.3v2.3H-1077.6z
				 M-1077.6,102.9v-2.3h2.3v2.3H-1077.6z M-1077.6,102.9v-2.3h2.3v2.3H-1077.6z M-1073,102.9v-2.3h2.3v2.3H-1073z M-1073,102.9
				v-2.3h2.3v2.3H-1073z M-1077.6,102.9v-2.3h2.3v2.3H-1077.6z M-1073,102.9v-2.3h2.3v2.3H-1073z M-1073,102.9v-2.3h2.3v2.3H-1073z
				 M-1077.6,102.9v-2.3h2.3v2.3H-1077.6z M-1073,102.9v-2.3h2.3v2.3H-1073z M-1073,102.9v-2.3h2.3v2.3H-1073z M-1073,102.9v-2.3
				h2.3v2.3H-1073z M-1073,102.9v-2.3h2.3v2.3H-1073z M-1073,102.9v-2.3h2.3v2.3H-1073z M-1073,102.9v-2.3h2.3v2.3H-1073z
				 M-1073,102.9v-2.3h2.3v2.3H-1073z M-1073,102.9v-2.3h2.3v2.3H-1073z M-1073,102.9v-2.3h2.3v2.3H-1073z M-1073,102.9v-2.3h2.3
				v2.3H-1073z M-1073,102.9v-2.3h2.3v2.3H-1073z M-1073,102.9v-2.3h2.3v2.3H-1073z M-1073,102.9v-2.3h2.3v2.3H-1073z M-1073,102.9
				v-2.3h2.3v2.3H-1073z M-1068.3,102.9v-2.3h2.3v2.3H-1068.3z M-1068.3,102.9v-2.3h2.3v2.3H-1068.3z M-1073,102.9v-2.3h2.3v2.3
				H-1073z M-1068.3,102.9v-2.3h2.3v2.3H-1068.3z M-1068.3,102.9v-2.3h2.3v2.3H-1068.3z M-1073,102.9v-2.3h2.3v2.3H-1073z
				 M-1068.3,102.9v-2.3h2.3v2.3H-1068.3z M-1068.3,102.9v-2.3h2.3v2.3H-1068.3z M-1068.3,102.9v-2.3h2.3v2.3H-1068.3z
				 M-1068.3,102.9v-2.3h2.3v2.3H-1068.3z M-1063.7,102.9v-2.3h2.3v2.3H-1063.7z"/>
		</g>
	</g>
	<g>
		<text transform="matrix(1 0 0 1 18.8081 207.831)" style="font-family:'Gilroy-Bold'; font-size:48.8271px;">Наклон</text>
		<text transform="matrix(1 0 0 1 35.3638 257.4999)" style="font-family:'Gilroy-Regular'; font-size:30.2263px;">+5° ~ -10°</text>
		<g>
			<g>
				<path d="M113.9,64.8c0,0,0,0.1,0,0.1c0,16.1-6.3,31.3-16.7,40.6l-1.5-1.7c9.9-8.9,15.9-23.4,15.9-38.8c0,0,0-0.1,0-0.1
					c0-15.5-5.8-29.5-15.9-38.6l1.6-1.7C107.8,33.9,113.9,48.6,113.9,64.8z"/>
				<g>
					<polygon points="99.4,106.6 92.5,107.7 95,101.2 					"/>
				</g>
				<g>
					<polygon points="99.3,23.3 92.5,22.1 94.9,28.6 					"/>
				</g>
			</g>
			<g>
				<path d="M164,127.2H9.5c-5.4,0-9.8-4.4-9.8-9.8c0-0.2,0-0.5,0.1-0.7l21-105c0.2-5.2,4.5-9.4,9.8-9.4h154.5
					c5.4,0,9.8,4.4,9.8,9.8c0,0.2,0,0.5-0.1,0.7l-21,105C173.6,123.1,169.3,127.2,164,127.2z M6.7,117.7c0.1,1.4,1.3,2.5,2.8,2.5
					H164c1.5,0,2.8-1.3,2.8-2.8c0-0.2,0-0.5,0.1-0.7l21-104.9c-0.1-1.4-1.3-2.5-2.8-2.5H30.6c-1.5,0-2.8,1.3-2.8,2.8
					c0,0.2,0,0.5-0.1,0.7L6.7,117.7z"/>
			</g>
			<path d="M185.1,124.9h-0.6v-2.3h0.6c0.5,0,1-0.1,1.4-0.2l0.6,2.2C186.5,124.8,185.8,124.9,185.1,124.9z M182.2,124.9h-2.3v-2.3
				h2.3V124.9z M177.6,124.9h-2.3v-2.3h2.3V124.9z M172.9,124.9h-2.3v-2.3h2.3V124.9z M168.3,124.9h-2.3v-2.3h2.3V124.9z
				 M163.6,124.9h-2.3v-2.3h2.3V124.9z M159,124.9h-2.3v-2.3h2.3V124.9z M154.3,124.9H152v-2.3h2.3V124.9z M149.7,124.9h-2.3v-2.3
				h2.3V124.9z M145,124.9h-2.3v-2.3h2.3V124.9z M140.4,124.9H138v-2.3h2.3V124.9z M135.7,124.9h-2.3v-2.3h2.3V124.9z M131.1,124.9
				h-2.3v-2.3h2.3V124.9z M126.4,124.9h-2.3v-2.3h2.3V124.9z M121.8,124.9h-2.3v-2.3h2.3V124.9z M117.1,124.9h-2.3v-2.3h2.3V124.9z
				 M112.5,124.9h-2.3v-2.3h2.3V124.9z M107.8,124.9h-2.3v-2.3h2.3V124.9z M103.2,124.9h-2.3v-2.3h2.3V124.9z M98.5,124.9h-2.3v-2.3
				h2.3V124.9z M93.9,124.9h-2.3v-2.3h2.3V124.9z M89.2,124.9h-2.3v-2.3h2.3V124.9z M84.6,124.9h-2.3v-2.3h2.3V124.9z M79.9,124.9
				h-2.3v-2.3h2.3V124.9z M75.3,124.9H73v-2.3h2.3V124.9z M70.6,124.9h-2.3v-2.3h2.3V124.9z M66,124.9h-2.3v-2.3H66V124.9z
				 M61.3,124.9H59v-2.3h2.3V124.9z M56.7,124.9h-2.3v-2.3h2.3V124.9z M52,124.9h-2.3v-2.3H52V124.9z M47.4,124.9h-2.3v-2.3h2.3
				V124.9z M42.7,124.9h-2.3v-2.3h2.3V124.9z M38.1,124.9h-2.3v-2.3h2.3V124.9z M33.4,124.9h-2.3v-2.3h2.3V124.9z M28.5,124.6
				c-0.9-0.3-1.7-0.7-2.5-1.2l1.4-1.9c0.5,0.4,1.1,0.7,1.7,0.8L28.5,124.6z M189.6,123.4l-1.4-1.9c0.5-0.4,0.9-0.9,1.3-1.4l2,1.2
				C191,122.1,190.3,122.8,189.6,123.4z M24.2,121.4c-0.5-0.8-0.8-1.7-1-2.6l2.3-0.4c0.1,0.6,0.3,1.2,0.7,1.8L24.2,121.4z
				 M192.4,118.8l-2.3-0.4c0.1-0.3,0.1-0.6,0.1-0.9l-0.2-0.9l2.3-0.5l0.2,1.2C192.6,117.9,192.5,118.4,192.4,118.8z M22.9,116.5
				l-0.5-2.3l2.3-0.5l0.5,2.3L22.9,116.5z M189.6,114.2l-0.5-2.3l2.3-0.5l0.5,2.3L189.6,114.2z M22,112l-0.5-2.3l2.3-0.5l0.5,2.3
				L22,112z M188.7,109.7l-0.5-2.3l2.3-0.5l0.5,2.3L188.7,109.7z M21.1,107.4l-0.5-2.3l2.3-0.5l0.5,2.3L21.1,107.4z M187.7,105.1
				l-0.5-2.3l2.3-0.5l0.5,2.3L187.7,105.1z M20.1,102.9l-0.5-2.3l2.3-0.5l0.5,2.3L20.1,102.9z M186.8,100.6l-0.5-2.3l2.3-0.5
				l0.5,2.3L186.8,100.6z M19.2,98.3L18.8,96l2.3-0.5l0.5,2.3L19.2,98.3z M185.9,96l-0.5-2.3l2.3-0.5l0.5,2.3L185.9,96z M18.3,93.7
				l-0.5-2.3l2.3-0.5l0.5,2.3L18.3,93.7z M185,91.4l-0.5-2.3l2.3-0.5l0.5,2.3L185,91.4z M17.4,89.2L17,86.9l2.3-0.5l0.5,2.3
				L17.4,89.2z M184.1,86.9l-0.5-2.3l2.3-0.5l0.5,2.3L184.1,86.9z M16.5,84.6L16,82.3l2.3-0.5l0.5,2.3L16.5,84.6z M183.2,82.3
				l-0.5-2.3l2.3-0.5l0.5,2.3L183.2,82.3z M15.6,80.1l-0.5-2.3l2.3-0.5l0.5,2.3L15.6,80.1z M182.3,77.8l-0.5-2.3l2.3-0.5l0.5,2.3
				L182.3,77.8z M14.7,75.5l-0.5-2.3l2.3-0.5L17,75L14.7,75.5z M181.4,73.2l-0.5-2.3l2.3-0.5l0.5,2.3L181.4,73.2z M13.8,70.9
				l-0.5-2.3l2.3-0.5l0.5,2.3L13.8,70.9z M180.4,68.6l-0.5-2.3l2.3-0.5l0.5,2.3L180.4,68.6z M12.9,66.4l-0.5-2.3l2.3-0.5l0.5,2.3
				L12.9,66.4z M11.9,61.8l-0.5-2.3l2.3-0.5l0.5,2.3L11.9,61.8z M11,57.3L10.6,55l2.3-0.5l0.5,2.3L11,57.3z M10.1,52.7l-0.5-2.3
				l2.3-0.5l0.5,2.3L10.1,52.7z M9.2,48.1l-0.5-2.3l2.3-0.5l0.5,2.3L9.2,48.1z M8.3,43.6l-0.5-2.3l2.3-0.5l0.5,2.3L8.3,43.6z
				 M7.4,39l-0.5-2.3l2.3-0.5l0.5,2.3L7.4,39z M6.5,34.5L6,32.2l2.3-0.5L8.8,34L6.5,34.5z M5.6,29.9l-0.5-2.3l2.3-0.5l0.5,2.3
				L5.6,29.9z M4.7,25.3l-0.5-2.3l2.3-0.5l0.5,2.3L4.7,25.3z M3.7,20.8l-0.5-2.3L5.6,18L6,20.3L3.7,20.8z M2.8,16.2l-0.5-2.3
				l2.3-0.5l0.5,2.3L2.8,16.2z M4.4,11.5l-2.3-0.3c0.1-0.9,0.4-1.8,0.8-2.6l2.1,1.1C4.7,10.3,4.5,10.9,4.4,11.5z M6.1,8.3L4.6,6.5
				c0.7-0.6,1.5-1.1,2.4-1.4l0.8,2.2C7.1,7.5,6.6,7.9,6.1,8.3z M30.6,7h-2.3V4.7h2.3V7z M25.9,7h-2.3V4.7h2.3V7z M21.3,7h-2.3V4.7
				h2.3V7z M16.6,7h-2.3V4.7h2.3V7z M12,7H9.6V4.7H12V7z"/>
		</g>
	</g>
	<g>
		<text transform="matrix(1 0 0 1 -463.0093 207.831)" style="font-family:'Gilroy-Bold'; font-size:48.8271px;">Вылет от стены</text>
		<text transform="matrix(1 0 0 1 -340.6118 257.4999)" style="font-family:'Gilroy-Regular'; font-size:30.2263px;">8.5 см</text>
		<g>
			<g>
				<path d="M-295.1,126.4c-1.9,0-3.4-1.5-3.4-3.4V6.6c0-1.9,1.5-3.4,3.4-3.4s3.4,1.5,3.4,3.4V123
					C-291.6,124.9-293.2,126.4-295.1,126.4z"/>
				<path d="M-295.1,127.2c-2.3,0-4.3-1.9-4.3-4.3V6.6c0-2.3,1.9-4.3,4.3-4.3c2.3,0,4.3,1.9,4.3,4.3V123
					C-290.8,125.3-292.7,127.2-295.1,127.2z M-295.1,3.9c-1.4,0-2.6,1.2-2.6,2.6V123c0,1.5,1.2,2.6,2.6,2.6c1.4,0,2.6-1.2,2.6-2.6
					V6.6C-292.4,5.1-293.6,3.9-295.1,3.9z"/>
			</g>
			<g>
				<path d="M-301.5,78.2c-1.7,0-3-1.3-3-3V54.3c0-1.7,1.3-3,3-3s3,1.3,3,3v20.9C-298.5,76.9-299.9,78.2-301.5,78.2z"/>
				<path d="M-301.5,79c-2.1,0-3.8-1.7-3.8-3.8V54.3c0-2.1,1.7-3.8,3.8-3.8c2.1,0,3.8,1.7,3.8,3.8v20.9
					C-297.7,77.3-299.4,79-301.5,79z M-301.5,52.2c-1.2,0-2.2,1-2.2,2.2v20.9c0,1.2,1,2.2,2.2,2.2c1.2,0,2.2-1,2.2-2.2V54.3
					C-299.3,53.1-300.3,52.2-301.5,52.2z"/>
			</g>
			<g>
				<path d="M-309.6,86.7c-1.9,0-3.4-1.5-3.4-3.4V44.6c0-1.9,1.5-3.4,3.4-3.4s3.4,1.5,3.4,3.4v38.7
					C-306.1,85.2-307.7,86.7-309.6,86.7z"/>
				<path d="M-309.6,87.5c-2.3,0-4.3-1.9-4.3-4.3V44.6c0-2.3,1.9-4.3,4.3-4.3c2.3,0,4.3,1.9,4.3,4.3v38.7
					C-305.3,85.6-307.2,87.5-309.6,87.5z M-309.6,41.9c-1.5,0-2.6,1.2-2.6,2.6v38.7c0,1.5,1.2,2.6,2.6,2.6c1.4,0,2.6-1.2,2.6-2.6
					V44.6C-306.9,43.1-308.1,41.9-309.6,41.9z"/>
			</g>
			<g>
				<line x1="-312.9" y1="113" x2="-312.9" y2="15"/>
				<path d="M-312.9,113.9c-0.5,0-1-0.4-1-1V15c0-0.5,0.4-1,1-1s1,0.4,1,1v98C-312,113.5-312.4,113.9-312.9,113.9z"/>
			</g>
		</g>
	</g>
</g>
</svg>
