<?xml version="1.0" encoding="utf-8"?>
<!-- Generator: Adobe Illustrator 27.2.0, SVG Export Plug-In . SVG Version: 6.00 Build 0)  -->
<svg version="1.1" id="Слой_1" xmlns="http://www.w3.org/2000/svg" xmlns:xlink="http://www.w3.org/1999/xlink" x="0px" y="0px"
	 viewBox="0 0 196 128.5" style="enable-background:new 0 0 196 128.5;" xml:space="preserve">
<style type="text/css">
	.st0{fill:#1D1D1B;}
</style>
<g>
	<text transform="matrix(1 0 0 1 -13.8374 207.1777)" style="font-family:'Gilroy-Bold'; font-size:48.8271px;">Диагональ</text>
	<text transform="matrix(1 0 0 1 40.4653 257.4999)"><tspan x="0" y="0" style="font-family:'Gilroy-Regular'; font-size:30.2263px;">60</tspan><tspan x="31" y="0" style="font-family:'Gilroy-Regular'; font-size:30.2263px;">&quot;</tspan><tspan x="41.8" y="0" style="font-family:'Gilroy-Regular'; font-size:30.2263px;">–</tspan><tspan x="56.9" y="0" style="font-family:'Gilroy-Regular'; font-size:30.2263px; letter-spacing:-2;"> </tspan><tspan x="60.9" y="0" style="font-family:'Gilroy-Regular'; font-size:30.2263px;">110&quot;</tspan></text>
	<g>
		<g>
			<rect x="9" y="64.9" transform="matrix(0.8654 -0.5011 0.5011 0.8654 -20.0953 57.4105)" width="175.7" height="2.3"/>
			<g>
				<polygon points="23.4,112.6 16.5,112.6 19.9,106.6 				"/>
			</g>
			<g>
				<polygon points="173.7,25.6 177.2,19.6 170.2,19.6 				"/>
			</g>
		</g>
		<path d="M185.8,127.2H12.7c-5.4,0-9.8-4.4-9.8-9.8V12.1c0-5.4,4.4-9.8,9.8-9.8h173.2c5.4,0,9.8,4.4,9.8,9.8v105.3
			C195.6,122.8,191.2,127.2,185.8,127.2z M12.7,9.3c-1.5,0-2.8,1.3-2.8,2.8v105.3c0,1.5,1.3,2.8,2.8,2.8h173.2
			c1.5,0,2.8-1.3,2.8-2.8V12.1c0-1.5-1.3-2.8-2.8-2.8H12.7z"/>
	</g>
	<text transform="matrix(1 0 0 1 -1548.6396 207.1777)" style="font-family:'Gilroy-Bold'; font-size:48.8271px;">VESA</text>
	<text transform="matrix(1 0 0 1 -1614.1045 257.4999)" style="font-family:'Gilroy-Regular'; font-size:30.2263px;">200x200 - 900x600</text>
	<text transform="matrix(1 0 0 1 -1194.4453 207.831)" style="font-family:'Gilroy-Bold'; font-size:48.8271px;">Нагрузка</text>
	<text transform="matrix(1 0 0 1 -1137.5088 257.4999)" style="font-family:'Gilroy-Regular'; font-size:30.2263px;">120 кг</text>
	<g>
		<path d="M-1045.8,127.2h-105.4c-3.9,0-7.1-3.2-7.1-7.1V38.8c0-3.9,3.2-7.1,7.1-7.1h32.5l0.1-7l-10.8-0.1c-3.9,0-7.1-3.2-7.1-7.1
			V6.7c0-3.9,3.2-7.1,7.1-7.1h61.9c3.9,0,7.1,3.2,7.1,7.1v10.7c0,3.9-3.2,7.1-7.1,7.1h-10.7l-0.1,7c0,0.1,0.1,0.1,0.1,0.1h32.5
			c3.9,0,7.1,3.2,7.1,7.1v81.4C-1038.7,124-1041.8,127.2-1045.8,127.2z M-1151.2,38.7l-0.1,81.5l105.5,0.1l0.1-81.5l-32.6-0.1
			c-3.9,0-7.1-3.2-7.1-7.1v-6.9c0-3.9,3.2-7.1,7.1-7.1h10.7l0.1-10.8l-14.4-0.1h-47.5l-0.1,10.8l10.8,0.1c3.9,0,7.1,3.2,7.1,7.1v6.9
			c0,3.9-3.2,7.1-7.1,7.1H-1151.2z"/>
		<text transform="matrix(1 0 0 1 -1119.3433 91.4824)" style="fill:none; font-family:'Gilroy-Bold'; font-size:49.433px;">кг</text>
	</g>
	<g>
		<path class="st0" d="M-1409.7,127.2h-173.2c-5.4,0-9.8-4.4-9.8-9.8V12.1c0-5.4,4.4-9.8,9.8-9.8h173.2c5.4,0,9.8,4.4,9.8,9.8v105.3
			C-1399.9,122.8-1404.3,127.2-1409.7,127.2z M-1582.9,9.3c-1.5,0-2.8,1.3-2.8,2.8v105.3c0,1.5,1.3,2.8,2.8,2.8h173.2
			c1.5,0,2.8-1.3,2.8-2.8V12.1c0-1.5-1.3-2.8-2.8-2.8H-1582.9z"/>
		<circle cx="-1541.3" cy="28.2" r="3.5"/>
		<circle cx="-1541.3" cy="101.7" r="3.5"/>
		<circle cx="-1450.9" cy="101.7" r="3.5"/>
		<circle cx="-1450.9" cy="28.2" r="3.5"/>
		<g>
			<path d="M-1449.7,82.7h-2.3v-2.3h2.3V82.7z M-1449.7,78.1h-2.3v-2.3h2.3V78.1z M-1449.7,73.4h-2.3v-2.3h2.3V73.4z M-1449.7,68.8
				h-2.3v-2.3h2.3V68.8z M-1449.7,96.7h-2.3v-2.3h2.3V96.7z M-1449.7,92h-2.3v-2.3h2.3V92z M-1449.7,87.4h-2.3v-2.3h2.3V87.4z
				 M-1449.7,82.7h-2.3v-2.3h2.3V82.7z M-1449.7,64.1h-2.3v-2.3h2.3V64.1z M-1449.7,64.1h-2.3v-2.3h2.3V64.1z M-1449.7,59.5h-2.3
				v-2.3h2.3V59.5z M-1449.7,59.5h-2.3v-2.3h2.3V59.5z M-1449.7,64.1h-2.3v-2.3h2.3V64.1z M-1449.7,59.5h-2.3v-2.3h2.3V59.5z
				 M-1449.7,59.5h-2.3v-2.3h2.3V59.5z M-1449.7,64.1h-2.3v-2.3h2.3V64.1z M-1449.7,59.5h-2.3v-2.3h2.3V59.5z M-1449.7,59.5h-2.3
				v-2.3h2.3V59.5z M-1449.7,59.5h-2.3v-2.3h2.3V59.5z M-1449.7,59.5h-2.3v-2.3h2.3V59.5z M-1449.7,54.8h-2.3v-2.3h2.3V54.8z
				 M-1449.7,50.2h-2.3v-2.3h2.3V50.2z M-1449.7,50.2h-2.3v-2.3h2.3V50.2z M-1449.7,50.2h-2.3v-2.3h2.3V50.2z M-1449.7,50.2h-2.3
				v-2.3h2.3V50.2z M-1449.7,50.2h-2.3v-2.3h2.3V50.2z M-1449.7,50.2h-2.3v-2.3h2.3V50.2z M-1449.7,50.2h-2.3v-2.3h2.3V50.2z
				 M-1449.7,50.2h-2.3v-2.3h2.3V50.2z M-1449.7,50.2h-2.3v-2.3h2.3V50.2z M-1449.7,45.5h-2.3v-2.3h2.3V45.5z M-1449.7,40.9h-2.3
				v-2.3h2.3V40.9z M-1449.7,40.9h-2.3v-2.3h2.3V40.9z M-1449.7,36.2h-2.3v-2.3h2.3V36.2z"/>
		</g>
		<g>
			<path d="M-1540.1,82.7h-2.3v-2.3h2.3V82.7z M-1540.1,78.1h-2.3v-2.3h2.3V78.1z M-1540.1,73.4h-2.3v-2.3h2.3V73.4z M-1540.1,68.8
				h-2.3v-2.3h2.3V68.8z M-1540.1,96.7h-2.3v-2.3h2.3V96.7z M-1540.1,92h-2.3v-2.3h2.3V92z M-1540.1,87.4h-2.3v-2.3h2.3V87.4z
				 M-1540.1,82.7h-2.3v-2.3h2.3V82.7z M-1540.1,64.1h-2.3v-2.3h2.3V64.1z M-1540.1,64.1h-2.3v-2.3h2.3V64.1z M-1540.1,59.5h-2.3
				v-2.3h2.3V59.5z M-1540.1,59.5h-2.3v-2.3h2.3V59.5z M-1540.1,64.1h-2.3v-2.3h2.3V64.1z M-1540.1,59.5h-2.3v-2.3h2.3V59.5z
				 M-1540.1,59.5h-2.3v-2.3h2.3V59.5z M-1540.1,64.1h-2.3v-2.3h2.3V64.1z M-1540.1,59.5h-2.3v-2.3h2.3V59.5z M-1540.1,59.5h-2.3
				v-2.3h2.3V59.5z M-1540.1,59.5h-2.3v-2.3h2.3V59.5z M-1540.1,59.5h-2.3v-2.3h2.3V59.5z M-1540.1,54.8h-2.3v-2.3h2.3V54.8z
				 M-1540.1,50.2h-2.3v-2.3h2.3V50.2z M-1540.1,50.2h-2.3v-2.3h2.3V50.2z M-1540.1,50.2h-2.3v-2.3h2.3V50.2z M-1540.1,50.2h-2.3
				v-2.3h2.3V50.2z M-1540.1,50.2h-2.3v-2.3h2.3V50.2z M-1540.1,50.2h-2.3v-2.3h2.3V50.2z M-1540.1,50.2h-2.3v-2.3h2.3V50.2z
				 M-1540.1,50.2h-2.3v-2.3h2.3V50.2z M-1540.1,50.2h-2.3v-2.3h2.3V50.2z M-1540.1,45.5h-2.3v-2.3h2.3V45.5z M-1540.1,40.9h-2.3
				v-2.3h2.3V40.9z M-1540.1,40.9h-2.3v-2.3h2.3V40.9z M-1540.1,36.2h-2.3v-2.3h2.3V36.2z"/>
		</g>
		<g>
			<path d="M-1524.8,29.3V27h2.3v2.3H-1524.8z M-1520.1,29.3V27l2.3,0v2.3H-1520.1z M-1515.5,29.3V27h2.3v2.3H-1515.5z
				 M-1510.8,29.3V27h2.3v2.3H-1510.8z M-1534.1,29.3V27h2.3v2.3H-1534.1z M-1529.4,29.3V27h2.3v2.3L-1529.4,29.3z M-1524.8,29.3V27
				h2.3v2.3H-1524.8z M-1520.1,29.3V27l2.3,0v2.3H-1520.1z M-1506.2,29.3V27h2.3v2.3L-1506.2,29.3z M-1506.2,29.3V27h2.3v2.3
				L-1506.2,29.3z M-1501.5,29.3V27h2.3v2.3H-1501.5z M-1501.5,29.3V27h2.3v2.3H-1501.5z M-1506.2,29.3V27h2.3v2.3L-1506.2,29.3z
				 M-1501.5,29.3V27h2.3v2.3H-1501.5z M-1501.5,29.3V27h2.3v2.3H-1501.5z M-1506.2,29.3V27h2.3v2.3L-1506.2,29.3z M-1501.5,29.3V27
				h2.3v2.3H-1501.5z M-1501.5,29.3V27h2.3v2.3H-1501.5z M-1501.5,29.3V27h2.3v2.3H-1501.5z M-1501.5,29.3V27h2.3v2.3H-1501.5z
				 M-1501.5,29.3V27h2.3v2.3H-1501.5z M-1496.9,29.3V27l2.3,0v2.3H-1496.9z M-1492.2,29.3V27h2.3v2.3H-1492.2z M-1492.2,29.3V27
				h2.3v2.3H-1492.2z M-1487.6,29.3V27h2.3v2.3H-1487.6z M-1487.6,29.3V27h2.3v2.3H-1487.6z M-1492.2,29.3V27h2.3v2.3H-1492.2z
				 M-1487.6,29.3V27h2.3v2.3H-1487.6z M-1487.6,29.3V27h2.3v2.3H-1487.6z M-1492.2,29.3V27h2.3v2.3H-1492.2z M-1487.6,29.3V27h2.3
				v2.3H-1487.6z M-1487.6,29.3V27h2.3v2.3H-1487.6z M-1487.6,29.3V27h2.3v2.3H-1487.6z M-1487.6,29.3V27h2.3v2.3H-1487.6z
				 M-1487.6,29.3V27h2.3v2.3H-1487.6z M-1487.6,29.3V27h2.3v2.3H-1487.6z M-1482.9,29.3V27h2.3v2.3L-1482.9,29.3z M-1482.9,29.3V27
				h2.3v2.3L-1482.9,29.3z M-1487.6,29.3V27h2.3v2.3H-1487.6z M-1482.9,29.3V27h2.3v2.3L-1482.9,29.3z M-1482.9,29.3V27h2.3v2.3
				L-1482.9,29.3z M-1487.6,29.3V27h2.3v2.3H-1487.6z M-1482.9,29.3V27h2.3v2.3L-1482.9,29.3z M-1482.9,29.3V27h2.3v2.3
				L-1482.9,29.3z M-1482.9,29.3V27h2.3v2.3L-1482.9,29.3z M-1482.9,29.3V27h2.3v2.3L-1482.9,29.3z M-1482.9,29.3V27h2.3v2.3
				L-1482.9,29.3z M-1482.9,29.3V27h2.3v2.3L-1482.9,29.3z M-1482.9,29.3V27h2.3v2.3L-1482.9,29.3z M-1482.9,29.3V27h2.3v2.3
				L-1482.9,29.3z M-1482.9,29.3V27h2.3v2.3L-1482.9,29.3z M-1482.9,29.3V27h2.3v2.3L-1482.9,29.3z M-1482.9,29.3V27h2.3v2.3
				L-1482.9,29.3z M-1482.9,29.3V27h2.3v2.3L-1482.9,29.3z M-1482.9,29.3V27h2.3v2.3L-1482.9,29.3z M-1482.9,29.3V27h2.3v2.3
				L-1482.9,29.3z M-1478.3,29.3V27h2.3v2.3H-1478.3z M-1478.3,29.3V27h2.3v2.3H-1478.3z M-1482.9,29.3V27h2.3v2.3L-1482.9,29.3z
				 M-1478.3,29.3V27h2.3v2.3H-1478.3z M-1478.3,29.3V27h2.3v2.3H-1478.3z M-1482.9,29.3V27h2.3v2.3L-1482.9,29.3z M-1478.3,29.3V27
				h2.3v2.3H-1478.3z M-1478.3,29.3V27h2.3v2.3H-1478.3z M-1478.3,29.3V27h2.3v2.3H-1478.3z M-1478.3,29.3V27h2.3v2.3H-1478.3z
				 M-1473.6,29.3V27h2.3v2.3H-1473.6z M-1473.6,29.3V27h2.3v2.3H-1473.6z M-1473.6,29.3V27h2.3v2.3H-1473.6z M-1473.6,29.3V27h2.3
				v2.3H-1473.6z M-1473.6,29.3V27h2.3v2.3H-1473.6z M-1473.6,29.3V27h2.3v2.3H-1473.6z M-1473.6,29.3V27h2.3v2.3H-1473.6z
				 M-1473.6,29.3V27h2.3v2.3H-1473.6z M-1473.6,29.3V27h2.3v2.3H-1473.6z M-1473.6,29.3V27h2.3v2.3H-1473.6z M-1473.6,29.3V27h2.3
				v2.3H-1473.6z M-1469,29.3V27h2.3v2.3H-1469z M-1469,29.3V27h2.3v2.3H-1469z M-1473.6,29.3V27h2.3v2.3H-1473.6z M-1469,29.3V27
				h2.3v2.3H-1469z M-1469,29.3V27h2.3v2.3H-1469z M-1473.6,29.3V27h2.3v2.3H-1473.6z M-1469,29.3V27h2.3v2.3H-1469z M-1469,29.3V27
				h2.3v2.3H-1469z M-1469,29.3V27h2.3v2.3H-1469z M-1469,29.3V27h2.3v2.3H-1469z M-1469,29.3V27h2.3v2.3H-1469z M-1469,29.3V27h2.3
				v2.3H-1469z M-1469,29.3V27h2.3v2.3H-1469z M-1469,29.3V27h2.3v2.3H-1469z M-1469,29.3V27h2.3v2.3H-1469z M-1469,29.3V27h2.3v2.3
				H-1469z M-1469,29.3V27h2.3v2.3H-1469z M-1469,29.3V27h2.3v2.3H-1469z M-1469,29.3V27h2.3v2.3H-1469z M-1469,29.3V27h2.3v2.3
				H-1469z M-1464.3,29.3V27h2.3v2.3L-1464.3,29.3z M-1464.3,29.3V27h2.3v2.3L-1464.3,29.3z M-1469,29.3V27h2.3v2.3H-1469z
				 M-1464.3,29.3V27h2.3v2.3L-1464.3,29.3z M-1464.3,29.3V27h2.3v2.3L-1464.3,29.3z M-1469,29.3V27h2.3v2.3H-1469z M-1464.3,29.3
				V27h2.3v2.3L-1464.3,29.3z M-1464.3,29.3V27h2.3v2.3L-1464.3,29.3z M-1464.3,29.3V27h2.3v2.3L-1464.3,29.3z M-1464.3,29.3V27h2.3
				v2.3L-1464.3,29.3z M-1459.7,29.3V27l2.3,0v2.3H-1459.7z"/>
		</g>
		<g>
			<path d="M-1524.8,102.9v-2.3h2.3v2.3H-1524.8z M-1520.1,102.9v-2.3l2.3,0v2.3H-1520.1z M-1515.5,102.9v-2.3h2.3v2.3H-1515.5z
				 M-1510.8,102.9v-2.3h2.3v2.3H-1510.8z M-1534.1,102.9v-2.3h2.3v2.3H-1534.1z M-1529.4,102.9v-2.3h2.3v2.3H-1529.4z
				 M-1524.8,102.9v-2.3h2.3v2.3H-1524.8z M-1520.1,102.9v-2.3l2.3,0v2.3H-1520.1z M-1506.2,102.9v-2.3h2.3v2.3L-1506.2,102.9z
				 M-1506.2,102.9v-2.3h2.3v2.3L-1506.2,102.9z M-1501.5,102.9v-2.3h2.3v2.3H-1501.5z M-1501.5,102.9v-2.3h2.3v2.3H-1501.5z
				 M-1506.2,102.9v-2.3h2.3v2.3L-1506.2,102.9z M-1501.5,102.9v-2.3h2.3v2.3H-1501.5z M-1501.5,102.9v-2.3h2.3v2.3H-1501.5z
				 M-1506.2,102.9v-2.3h2.3v2.3L-1506.2,102.9z M-1501.5,102.9v-2.3h2.3v2.3H-1501.5z M-1501.5,102.9v-2.3h2.3v2.3H-1501.5z
				 M-1501.5,102.9v-2.3h2.3v2.3H-1501.5z M-1501.5,102.9v-2.3h2.3v2.3H-1501.5z M-1501.5,102.9v-2.3h2.3v2.3H-1501.5z
				 M-1496.9,102.9v-2.3h2.3v2.3H-1496.9z M-1492.2,102.9v-2.3h2.3v2.3H-1492.2z M-1492.2,102.9v-2.3h2.3v2.3H-1492.2z
				 M-1487.6,102.9v-2.3h2.3v2.3H-1487.6z M-1487.6,102.9v-2.3h2.3v2.3H-1487.6z M-1492.2,102.9v-2.3h2.3v2.3H-1492.2z
				 M-1487.6,102.9v-2.3h2.3v2.3H-1487.6z M-1487.6,102.9v-2.3h2.3v2.3H-1487.6z M-1492.2,102.9v-2.3h2.3v2.3H-1492.2z
				 M-1487.6,102.9v-2.3h2.3v2.3H-1487.6z M-1487.6,102.9v-2.3h2.3v2.3H-1487.6z M-1487.6,102.9v-2.3h2.3v2.3H-1487.6z
				 M-1487.6,102.9v-2.3h2.3v2.3H-1487.6z M-1487.6,102.9v-2.3h2.3v2.3H-1487.6z M-1487.6,102.9v-2.3h2.3v2.3H-1487.6z
				 M-1482.9,102.9v-2.3h2.3v2.3H-1482.9z M-1482.9,102.9v-2.3h2.3v2.3H-1482.9z M-1487.6,102.9v-2.3h2.3v2.3H-1487.6z
				 M-1482.9,102.9v-2.3h2.3v2.3H-1482.9z M-1482.9,102.9v-2.3h2.3v2.3H-1482.9z M-1487.6,102.9v-2.3h2.3v2.3H-1487.6z
				 M-1482.9,102.9v-2.3h2.3v2.3H-1482.9z M-1482.9,102.9v-2.3h2.3v2.3H-1482.9z M-1482.9,102.9v-2.3h2.3v2.3H-1482.9z
				 M-1482.9,102.9v-2.3h2.3v2.3H-1482.9z M-1482.9,102.9v-2.3h2.3v2.3H-1482.9z M-1482.9,102.9v-2.3h2.3v2.3H-1482.9z
				 M-1482.9,102.9v-2.3h2.3v2.3H-1482.9z M-1482.9,102.9v-2.3h2.3v2.3H-1482.9z M-1482.9,102.9v-2.3h2.3v2.3H-1482.9z
				 M-1482.9,102.9v-2.3h2.3v2.3H-1482.9z M-1482.9,102.9v-2.3h2.3v2.3H-1482.9z M-1482.9,102.9v-2.3h2.3v2.3H-1482.9z
				 M-1482.9,102.9v-2.3h2.3v2.3H-1482.9z M-1482.9,102.9v-2.3h2.3v2.3H-1482.9z M-1478.3,102.9v-2.3h2.3v2.3H-1478.3z
				 M-1478.3,102.9v-2.3h2.3v2.3H-1478.3z M-1482.9,102.9v-2.3h2.3v2.3H-1482.9z M-1478.3,102.9v-2.3h2.3v2.3H-1478.3z
				 M-1478.3,102.9v-2.3h2.3v2.3H-1478.3z M-1482.9,102.9v-2.3h2.3v2.3H-1482.9z M-1478.3,102.9v-2.3h2.3v2.3H-1478.3z
				 M-1478.3,102.9v-2.3h2.3v2.3H-1478.3z M-1478.3,102.9v-2.3h2.3v2.3H-1478.3z M-1478.3,102.9v-2.3h2.3v2.3H-1478.3z
				 M-1473.6,102.9v-2.3h2.3v2.3H-1473.6z M-1473.6,102.9v-2.3h2.3v2.3H-1473.6z M-1473.6,102.9v-2.3h2.3v2.3H-1473.6z
				 M-1473.6,102.9v-2.3h2.3v2.3H-1473.6z M-1473.6,102.9v-2.3h2.3v2.3H-1473.6z M-1473.6,102.9v-2.3h2.3v2.3H-1473.6z
				 M-1473.6,102.9v-2.3h2.3v2.3H-1473.6z M-1473.6,102.9v-2.3h2.3v2.3H-1473.6z M-1473.6,102.9v-2.3h2.3v2.3H-1473.6z
				 M-1473.6,102.9v-2.3h2.3v2.3H-1473.6z M-1473.6,102.9v-2.3h2.3v2.3H-1473.6z M-1469,102.9v-2.3h2.3v2.3H-1469z M-1469,102.9
				v-2.3h2.3v2.3H-1469z M-1473.6,102.9v-2.3h2.3v2.3H-1473.6z M-1469,102.9v-2.3h2.3v2.3H-1469z M-1469,102.9v-2.3h2.3v2.3H-1469z
				 M-1473.6,102.9v-2.3h2.3v2.3H-1473.6z M-1469,102.9v-2.3h2.3v2.3H-1469z M-1469,102.9v-2.3h2.3v2.3H-1469z M-1469,102.9v-2.3
				h2.3v2.3H-1469z M-1469,102.9v-2.3h2.3v2.3H-1469z M-1469,102.9v-2.3h2.3v2.3H-1469z M-1469,102.9v-2.3h2.3v2.3H-1469z
				 M-1469,102.9v-2.3h2.3v2.3H-1469z M-1469,102.9v-2.3h2.3v2.3H-1469z M-1469,102.9v-2.3h2.3v2.3H-1469z M-1469,102.9v-2.3h2.3
				v2.3H-1469z M-1469,102.9v-2.3h2.3v2.3H-1469z M-1469,102.9v-2.3h2.3v2.3H-1469z M-1469,102.9v-2.3h2.3v2.3H-1469z M-1469,102.9
				v-2.3h2.3v2.3H-1469z M-1464.3,102.9v-2.3h2.3v2.3H-1464.3z M-1464.3,102.9v-2.3h2.3v2.3H-1464.3z M-1469,102.9v-2.3h2.3v2.3
				H-1469z M-1464.3,102.9v-2.3h2.3v2.3H-1464.3z M-1464.3,102.9v-2.3h2.3v2.3H-1464.3z M-1469,102.9v-2.3h2.3v2.3H-1469z
				 M-1464.3,102.9v-2.3h2.3v2.3H-1464.3z M-1464.3,102.9v-2.3h2.3v2.3H-1464.3z M-1464.3,102.9v-2.3h2.3v2.3H-1464.3z
				 M-1464.3,102.9v-2.3h2.3v2.3H-1464.3z M-1459.7,102.9v-2.3h2.3v2.3H-1459.7z"/>
		</g>
	</g>
	<g>
		<text transform="matrix(1 0 0 1 -377.1919 207.831)" style="font-family:'Gilroy-Bold'; font-size:48.8271px;">Наклон</text>
		<text transform="matrix(1 0 0 1 -360.6362 257.4999)" style="font-family:'Gilroy-Regular'; font-size:30.2263px;">+5° ~ -10°</text>
		<g>
			<g>
				<path d="M-282.1,64.8c0,0,0,0.1,0,0.1c0,16.1-6.3,31.3-16.7,40.6l-1.5-1.7c9.9-8.9,15.9-23.4,15.9-38.8c0,0,0-0.1,0-0.1
					c0-15.5-5.8-29.5-15.9-38.6l1.6-1.7C-288.2,33.9-282.1,48.6-282.1,64.8z"/>
				<g>
					<polygon points="-296.6,106.6 -303.5,107.7 -301,101.2 					"/>
				</g>
				<g>
					<polygon points="-296.7,23.3 -303.5,22.1 -301.1,28.6 					"/>
				</g>
			</g>
			<g>
				<path d="M-232,127.2h-154.5c-5.4,0-9.8-4.4-9.8-9.8c0-0.2,0-0.5,0.1-0.7l21-105c0.2-5.2,4.5-9.4,9.8-9.4h154.5
					c5.4,0,9.8,4.4,9.8,9.8c0,0.2,0,0.5-0.1,0.7l-21,105C-222.4,123.1-226.7,127.2-232,127.2z M-389.3,117.7
					c0.1,1.4,1.3,2.5,2.8,2.5H-232c1.5,0,2.8-1.3,2.8-2.8c0-0.2,0-0.5,0.1-0.7l21-104.9c-0.1-1.4-1.3-2.5-2.8-2.5h-154.5
					c-1.5,0-2.8,1.3-2.8,2.8c0,0.2,0,0.5-0.1,0.7L-389.3,117.7z"/>
			</g>
			<path d="M-210.9,124.9h-0.6v-2.3h0.6c0.5,0,1-0.1,1.4-0.2l0.6,2.2C-209.5,124.8-210.2,124.9-210.9,124.9z M-213.8,124.9h-2.3
				v-2.3h2.3V124.9z M-218.4,124.9h-2.3v-2.3h2.3V124.9z M-223.1,124.9h-2.3v-2.3h2.3V124.9z M-227.7,124.9h-2.3v-2.3h2.3V124.9z
				 M-232.4,124.9h-2.3v-2.3h2.3V124.9z M-237,124.9h-2.3v-2.3h2.3V124.9z M-241.7,124.9h-2.3v-2.3h2.3V124.9z M-246.3,124.9h-2.3
				v-2.3h2.3V124.9z M-251,124.9h-2.3v-2.3h2.3V124.9z M-255.6,124.9h-2.3v-2.3h2.3V124.9z M-260.3,124.9h-2.3v-2.3h2.3V124.9z
				 M-264.9,124.9h-2.3v-2.3h2.3V124.9z M-269.6,124.9h-2.3v-2.3h2.3V124.9z M-274.2,124.9h-2.3v-2.3h2.3V124.9z M-278.9,124.9h-2.3
				v-2.3h2.3V124.9z M-283.5,124.9h-2.3v-2.3h2.3V124.9z M-288.2,124.9h-2.3v-2.3h2.3V124.9z M-292.8,124.9h-2.3v-2.3h2.3V124.9z
				 M-297.5,124.9h-2.3v-2.3h2.3V124.9z M-302.1,124.9h-2.3v-2.3h2.3V124.9z M-306.8,124.9h-2.3v-2.3h2.3V124.9z M-311.4,124.9h-2.3
				v-2.3h2.3V124.9z M-316.1,124.9h-2.3v-2.3h2.3V124.9z M-320.7,124.9h-2.3v-2.3h2.3V124.9z M-325.4,124.9h-2.3v-2.3h2.3V124.9z
				 M-330,124.9h-2.3v-2.3h2.3V124.9z M-334.7,124.9h-2.3v-2.3h2.3V124.9z M-339.3,124.9h-2.3v-2.3h2.3V124.9z M-344,124.9h-2.3
				v-2.3h2.3V124.9z M-348.6,124.9h-2.3v-2.3h2.3V124.9z M-353.3,124.9h-2.3v-2.3h2.3V124.9z M-357.9,124.9h-2.3v-2.3h2.3V124.9z
				 M-362.6,124.9h-2.3v-2.3h2.3V124.9z M-367.5,124.6c-0.9-0.3-1.7-0.7-2.5-1.2l1.4-1.9c0.5,0.4,1.1,0.7,1.7,0.8L-367.5,124.6z
				 M-206.4,123.4l-1.4-1.9c0.5-0.4,0.9-0.9,1.3-1.4l2,1.2C-205,122.1-205.7,122.8-206.4,123.4z M-371.8,121.4
				c-0.5-0.8-0.8-1.7-1-2.6l2.3-0.4c0.1,0.6,0.3,1.2,0.7,1.8L-371.8,121.4z M-203.6,118.8l-2.3-0.4c0.1-0.3,0.1-0.6,0.1-0.9
				l-0.2-0.9l2.3-0.5l0.2,1.2C-203.4,117.9-203.5,118.4-203.6,118.8z M-373.1,116.5l-0.5-2.3l2.3-0.5l0.5,2.3L-373.1,116.5z
				 M-206.4,114.2l-0.5-2.3l2.3-0.5l0.5,2.3L-206.4,114.2z M-374,112l-0.5-2.3l2.3-0.5l0.5,2.3L-374,112z M-207.3,109.7l-0.5-2.3
				l2.3-0.5l0.5,2.3L-207.3,109.7z M-374.9,107.4l-0.5-2.3l2.3-0.5l0.5,2.3L-374.9,107.4z M-208.3,105.1l-0.5-2.3l2.3-0.5l0.5,2.3
				L-208.3,105.1z M-375.9,102.9l-0.5-2.3l2.3-0.5l0.5,2.3L-375.9,102.9z M-209.2,100.6l-0.5-2.3l2.3-0.5l0.5,2.3L-209.2,100.6z
				 M-376.8,98.3l-0.5-2.3l2.3-0.5l0.5,2.3L-376.8,98.3z M-210.1,96l-0.5-2.3l2.3-0.5l0.5,2.3L-210.1,96z M-377.7,93.7l-0.5-2.3
				l2.3-0.5l0.5,2.3L-377.7,93.7z M-211,91.4l-0.5-2.3l2.3-0.5l0.5,2.3L-211,91.4z M-378.6,89.2l-0.5-2.3l2.3-0.5l0.5,2.3
				L-378.6,89.2z M-211.9,86.9l-0.5-2.3l2.3-0.5l0.5,2.3L-211.9,86.9z M-379.5,84.6l-0.5-2.3l2.3-0.5l0.5,2.3L-379.5,84.6z
				 M-212.8,82.3l-0.5-2.3l2.3-0.5l0.5,2.3L-212.8,82.3z M-380.4,80.1l-0.5-2.3l2.3-0.5l0.5,2.3L-380.4,80.1z M-213.7,77.8l-0.5-2.3
				l2.3-0.5l0.5,2.3L-213.7,77.8z M-381.3,75.5l-0.5-2.3l2.3-0.5l0.5,2.3L-381.3,75.5z M-214.6,73.2l-0.5-2.3l2.3-0.5l0.5,2.3
				L-214.6,73.2z M-382.2,70.9l-0.5-2.3l2.3-0.5l0.5,2.3L-382.2,70.9z M-215.6,68.6l-0.5-2.3l2.3-0.5l0.5,2.3L-215.6,68.6z
				 M-383.1,66.4l-0.5-2.3l2.3-0.5l0.5,2.3L-383.1,66.4z M-384.1,61.8l-0.5-2.3l2.3-0.5l0.5,2.3L-384.1,61.8z M-385,57.3l-0.5-2.3
				l2.3-0.5l0.5,2.3L-385,57.3z M-385.9,52.7l-0.5-2.3l2.3-0.5l0.5,2.3L-385.9,52.7z M-386.8,48.1l-0.5-2.3l2.3-0.5l0.5,2.3
				L-386.8,48.1z M-387.7,43.6l-0.5-2.3l2.3-0.5l0.5,2.3L-387.7,43.6z M-388.6,39l-0.5-2.3l2.3-0.5l0.5,2.3L-388.6,39z M-389.5,34.5
				l-0.5-2.3l2.3-0.5l0.5,2.3L-389.5,34.5z M-390.4,29.9l-0.5-2.3l2.3-0.5l0.5,2.3L-390.4,29.9z M-391.3,25.3l-0.5-2.3l2.3-0.5
				l0.5,2.3L-391.3,25.3z M-392.3,20.8l-0.5-2.3l2.3-0.5l0.5,2.3L-392.3,20.8z M-393.2,16.2l-0.5-2.3l2.3-0.5l0.5,2.3L-393.2,16.2z
				 M-391.6,11.5l-2.3-0.3c0.1-0.9,0.4-1.8,0.8-2.6l2.1,1.1C-391.3,10.3-391.5,10.9-391.6,11.5z M-389.9,8.3l-1.5-1.8
				c0.7-0.6,1.5-1.1,2.4-1.4l0.8,2.2C-388.9,7.5-389.4,7.9-389.9,8.3z M-365.4,7h-2.3V4.7h2.3V7z M-370.1,7h-2.3V4.7h2.3V7z
				 M-374.7,7h-2.3V4.7h2.3V7z M-379.4,7h-2.3V4.7h2.3V7z M-384,7h-2.3V4.7h2.3V7z"/>
		</g>
	</g>
	<g>
		<text transform="matrix(1 0 0 1 -859.0093 207.831)" style="font-family:'Gilroy-Bold'; font-size:48.8271px;">Вылет от стены</text>
		<text transform="matrix(1 0 0 1 -736.6118 257.4999)" style="font-family:'Gilroy-Regular'; font-size:30.2263px;">8.5 см</text>
		<g>
			<g>
				<path d="M-691.1,126.4c-1.9,0-3.4-1.5-3.4-3.4V6.6c0-1.9,1.5-3.4,3.4-3.4c1.9,0,3.4,1.5,3.4,3.4V123
					C-687.6,124.9-689.2,126.4-691.1,126.4z"/>
				<path d="M-691.1,127.2c-2.3,0-4.3-1.9-4.3-4.3V6.6c0-2.3,1.9-4.3,4.3-4.3s4.3,1.9,4.3,4.3V123
					C-686.8,125.3-688.7,127.2-691.1,127.2z M-691.1,3.9c-1.4,0-2.6,1.2-2.6,2.6V123c0,1.5,1.2,2.6,2.6,2.6s2.6-1.2,2.6-2.6V6.6
					C-688.4,5.1-689.6,3.9-691.1,3.9z"/>
			</g>
			<g>
				<path d="M-697.5,78.2c-1.7,0-3-1.3-3-3V54.3c0-1.7,1.3-3,3-3s3,1.3,3,3v20.9C-694.5,76.9-695.9,78.2-697.5,78.2z"/>
				<path d="M-697.5,79c-2.1,0-3.8-1.7-3.8-3.8V54.3c0-2.1,1.7-3.8,3.8-3.8s3.8,1.7,3.8,3.8v20.9C-693.7,77.3-695.4,79-697.5,79z
					 M-697.5,52.2c-1.2,0-2.2,1-2.2,2.2v20.9c0,1.2,1,2.2,2.2,2.2c1.2,0,2.2-1,2.2-2.2V54.3C-695.3,53.1-696.3,52.2-697.5,52.2z"/>
			</g>
			<g>
				<path d="M-705.6,86.7c-1.9,0-3.4-1.5-3.4-3.4V44.6c0-1.9,1.5-3.4,3.4-3.4c1.9,0,3.4,1.5,3.4,3.4v38.7
					C-702.1,85.2-703.7,86.7-705.6,86.7z"/>
				<path d="M-705.6,87.5c-2.3,0-4.3-1.9-4.3-4.3V44.6c0-2.3,1.9-4.3,4.3-4.3c2.3,0,4.3,1.9,4.3,4.3v38.7
					C-701.3,85.6-703.2,87.5-705.6,87.5z M-705.6,41.9c-1.5,0-2.6,1.2-2.6,2.6v38.7c0,1.5,1.2,2.6,2.6,2.6c1.4,0,2.6-1.2,2.6-2.6
					V44.6C-702.9,43.1-704.1,41.9-705.6,41.9z"/>
			</g>
			<g>
				<line x1="-708.9" y1="113" x2="-708.9" y2="15"/>
				<path d="M-708.9,113.9c-0.5,0-1-0.4-1-1V15c0-0.5,0.4-1,1-1c0.5,0,1,0.4,1,1v98C-708,113.5-708.4,113.9-708.9,113.9z"/>
			</g>
		</g>
	</g>
</g>
</svg>
