<?xml version="1.0" encoding="utf-8"?>
<!-- Generator: Adobe Illustrator 27.2.0, SVG Export Plug-In . SVG Version: 6.00 Build 0)  -->
<svg version="1.1" id="Слой_1" xmlns="http://www.w3.org/2000/svg" xmlns:xlink="http://www.w3.org/1999/xlink" x="0px" y="0px"
	 viewBox="0 0 272 39" style="enable-background:new 0 0 272 39;" xml:space="preserve">
<g>
	<path d="M192.9,19.8c0,8.3,3.3,12.8,11.5,12.8c8.3,0,11.5-4.6,11.5-12.8c0-8.3-3.3-12.8-11.5-12.8C196.2,7,192.9,11.6,192.9,19.8
		 M204.5-0.3c13.8,0,21.7,5.8,21.7,20.1c0,14.3-7.9,20.1-21.7,20.1c-13.8,0-21.7-5.8-21.7-20.1C182.8,5.5,190.7-0.3,204.5-0.3z"/>
	<path d="M9.8,19.8c0,8.3,3.3,12.8,11.5,12.8c8.3,0,11.5-4.6,11.5-12.8C32.8,11.6,29.6,7,21.3,7C13,7,9.8,11.6,9.8,19.8 M21.3-0.3
		C35.1-0.3,43,5.5,43,19.8c0,14.3-7.9,20.1-21.7,20.1c-13.8,0-21.7-5.8-21.7-20.1C-0.4,5.5,7.5-0.3,21.3-0.3z"/>
	<path d="M51.1,39.1c-1.4,0-2.5-1.2-2.5-2.5l0-33.5c0-1.4,1.1-2.5,2.5-2.5l8,0c1.3,0,2.9,1.3,3.7,2.5l16.3,25l0-25.1
		c0-1.4,1.2-2.5,2.5-2.5l4.6,0c1.4,0,2.5,1.1,2.5,2.5l0,33.5c0,1.4-1.1,2.5-2.5,2.5l-8.9,0c-1.4,0-3-1.2-3.9-2.5L58.4,13.5l0,23.1
		c0,1.4-1.2,2.5-2.5,2.5L51.1,39.1z"/>
	<path d="M99,39.1c-1.4,0-2.5-1.2-2.5-2.6l0-33.4c0-1.4,1.2-2.6,2.5-2.6l5.1,0c1.4,0,2.5,1.2,2.5,2.6l0,12.9l5.8,0
		c3.1,0,5.4-1.6,7.6-5.5l4.2-7.4c1-1.8,2.5-2.6,3.9-2.6l6.2,0c1.4,0,1.7,1.1,0.8,2.6l-5.9,10.6c-1.4,2.5-3.2,5.1-7,5.9
		c2.7,0.6,5.4,3.9,7,6.3l6.7,10.7c0.9,1.4,0.5,2.5-0.9,2.5h-6.2c-1.4,0-3.3-1.1-4.1-2.5l-4.8-7.5c-2-3.2-4.1-5.5-7.6-5.5l-5.8,0
		l0,13c0,1.4-1.2,2.5-2.5,2.5L99,39.1z"/>
	<path d="M150.5,8.2v9.2l11.5,0c3.1,0,7-1.1,7-4.6c0-3.5-3.9-4.6-7-4.6L150.5,8.2z M150.5,25v11.6c0,1.4-1.1,2.5-2.5,2.5h-5.1
		c-1.4,0-2.5-1.2-2.5-2.5V3.1c0-1.4,1.1-2.5,2.5-2.5l22.3,0c8.1,0,14.1,4.6,14.1,12.2c0,5.9-4.6,8.7-10.2,9.8
		c2.3,0.8,3.9,2.8,6.1,6.2l4.9,7.8c0.9,1.4,0.5,2.5-0.9,2.5l-6.5,0c-1.4,0-3.3-1.1-4.1-2.5l-4.6-7.2c-1.4-2.1-3.4-4.4-6.9-4.4
		L150.5,25z"/>
	<path d="M234.2,39.1c-1.4,0-2.5-1.2-2.5-2.5V3.1c0-1.4,1.1-2.5,2.5-2.5l8,0c1.3,0,2.9,1.3,3.7,2.5l16.3,25V3.1
		c0-1.4,1.2-2.5,2.5-2.5l4.6,0c1.4,0,2.5,1.1,2.5,2.5v33.5c0,1.4-1.1,2.5-2.5,2.5l-8.9,0c-1.4,0-3-1.2-3.9-2.5l-14.9-23.1v23.1
		c0,1.4-1.2,2.5-2.5,2.5H234.2z"/>
</g>
</svg>
